<?xml version="1.0" standalone="no"?>
<!DOCTYPE svg PUBLIC "-//W3C//DTD SVG 1.1//EN" "http://www.w3.org/Graphics/SVG/1.1/DTD/svg11.dtd" >
<svg xmlns="http://www.w3.org/2000/svg">
<metadata></metadata>
<defs>
<font id="andralis_nd_scregular" horiz-adv-x="927" >
<font-face units-per-em="2048" ascent="1638" descent="-410" />
<missing-glyph horiz-adv-x="491" />
<glyph horiz-adv-x="0" />
<glyph horiz-adv-x="682" />
<glyph unicode=" "  horiz-adv-x="491" />
<glyph unicode="&#x09;" horiz-adv-x="491" />
<glyph unicode="&#xa0;" horiz-adv-x="491" />
<glyph unicode="!" horiz-adv-x="520" d="M90 72v28q0 20 51.5 69.5t71.5 49.5q33 0 76 -37t43 -67v-31q0 -20 -49.5 -66.5t-69.5 -46.5q-31 0 -77 36.5t-46 64.5zM182 344v1045l29 24q71 -7 126.5 -50.5t55.5 -111.5q0 -41 -33 -272q-66 -443 -96 -610l-22 -25h-60z" />
<glyph unicode="&#x22;" horiz-adv-x="606" d="M154 924v499l18 19q43 -4 85 -26.5t42 -59.5q0 -52 -9 -110.5t-19 -99t-29 -109t-27 -101.5l-14 -12h-47zM412 924v499l18 19q43 -4 85 -26.5t42 -59.5q0 -52 -9 -110.5t-19 -99t-29 -109t-27 -101.5l-14 -12h-47z" />
<glyph unicode="#" d="M57 406v86h250l10 344h-247v88h256l14 385h96l-12 -385h100l17 385h94l-14 -385h249v-88h-247l-15 -344h246v-86h-250l-16 -435h-96l16 435h-105l-14 -435h-98l16 435h-250zM401 492h113l10 344h-108z" />
<glyph unicode="$" d="M51 283l76 22q11 -17 35 -56t35 -55t34 -42t43 -37t51.5 -20t69.5 -9q51 0 100.5 12t94 36t71.5 67.5t27 99.5q0 36 -15.5 68.5t-35 55t-60 50t-68 43t-81.5 43.5q-137 72 -189 111q-141 107 -141 258q0 118 66.5 200t179.5 119l6 193h96l-4 -170q44 8 101 8l6 162h94 l-6 -168q125 -17 178 -33v-278l-63 -13l-105 219q-73 5 -84 5q-38 0 -76 -5.5t-79 -19t-71.5 -34.5t-50.5 -55.5t-20 -78.5q0 -35 15.5 -67.5t35 -55t60 -51t67 -43.5t80.5 -45q8 -5 25 -14q139 -77 195 -126q114 -100 114 -239q0 -134 -69 -221t-195 -121l-8 -213h-94 l6 192q-49 -6 -99 -6l-6 -186h-96l6 192q-107 11 -190 33z" />
<glyph unicode="%" horiz-adv-x="1392" d="M76 981q0 91 28.5 163t92.5 118.5t157 46.5q71 0 124 -26.5t83.5 -73t45 -103.5t14.5 -125q0 -143 -71.5 -238.5t-209.5 -95.5q-57 0 -102.5 18t-75.5 49t-49.5 74.5t-28 91t-8.5 101.5zM174 981q0 -52 8.5 -95t27 -79t53 -56t81.5 -20q91 0 134.5 71t43.5 179 q0 52 -8.5 94.5t-28 77.5t-54 54.5t-81.5 19.5q-92 0 -134 -68.5t-42 -177.5zM373 -29l592 1471h102l-594 -1471h-100zM770 303q0 90 29 163t94 120t158 47q72 0 125.5 -26.5t83.5 -73t44.5 -104t14.5 -126.5q0 -90 -29 -163.5t-94 -121t-158 -47.5q-72 0 -125.5 27 t-83.5 74.5t-44.5 105t-14.5 125.5zM870 305q0 -52 8.5 -95t27 -79t53 -56t81.5 -20q92 0 135.5 71t43.5 179q0 109 -40 177.5t-130 68.5q-92 0 -135.5 -69.5t-43.5 -176.5z" />
<glyph unicode="&#x26;" horiz-adv-x="1142" d="M55 449q0 247 156.5 389.5t411.5 142.5q118 0 311 -27l-19 -245l-69 -17q-39 123 -49 131q-7 8 -72 17.5t-141 9.5q-91 0 -179.5 -17.5t-119.5 -48.5q-27 -27 -45.5 -98.5t-18.5 -128.5h551q66 0 260 4t250 4l27 -24q-3 -38 -8.5 -116t-8.5 -116l-71 -14l-25 117 q-10 51 -86 51h-184v-420q-142 -74 -371 -74q-238 0 -369 123t-131 357zM246 305q34 -112 118.5 -166.5t196.5 -54.5q50 0 120 11t83 22q12 12 12 55v229q0 28 -13.5 42.5t-28.5 17t-42 2.5h-223q-85 0 -127 -14t-66 -70q-18 -45 -30 -74z" />
<glyph unicode="'" horiz-adv-x="385" d="M188 924v499l21 19q127 -22 127 -86q0 -42 -4.5 -84t-15.5 -89.5t-18.5 -77t-24.5 -88.5t-23 -81l-12 -12h-50z" />
<glyph unicode="(" horiz-adv-x="663" d="M129 483q0 288 108 549.5t318 437.5l55 -63q-194 -174 -287.5 -409.5t-93.5 -510.5q0 -276 93.5 -512.5t287.5 -410.5l-55 -64q-210 176 -318 436t-108 547z" />
<glyph unicode=")" horiz-adv-x="663" d="M55 -436q194 174 287.5 410.5t93.5 512.5q0 275 -93.5 510.5t-287.5 409.5l56 63q210 -176 318 -437.5t108 -549.5q0 -287 -108 -547t-318 -436z" />
<glyph unicode="*" horiz-adv-x="983" d="M80 1196q14 31 39.5 55.5t54.5 24.5q38 0 108.5 -48t125.5 -95l6 -15l-17 -47l-307 98zM160 807q0 23 24.5 53.5t62.5 59.5t67.5 48.5t56.5 35.5l16 2l41 -31l-192 -260l-27 -2q-49 45 -49 94zM475 1128v324l21 18q39 -4 73.5 -27t34.5 -59q0 -91 -65 -243l-15 -13h-49z M485 930l4 16l39 29l191 -260l-6 -29q-42 -20 -78 -20q-97 0 -150 264zM557 1073l307 98l25 -14q4 -20 4 -35q0 -37 -14 -61t-41.5 -34.5t-53 -13.5t-63.5 -3h-35q-48 0 -98 6l-15 8z" />
<glyph unicode="+" horiz-adv-x="925" d="M55 475v88h361v473h98v-473h356v-88h-356v-475h-98v475h-361z" />
<glyph unicode="," horiz-adv-x="436" d="M80 -301l158 301l-111 68v49q1 1 15.5 16t28 28.5t30.5 29t30.5 25t20.5 9.5q38 0 97 -58.5t59 -98.5t-55.5 -126.5t-112.5 -155.5t-101 -116z" />
<glyph unicode="-" horiz-adv-x="569" d="M59 471v96h473v-96h-473z" />
<glyph unicode="." horiz-adv-x="507" d="M133 72v28q0 20 51.5 69.5t71.5 49.5q32 0 75.5 -37t43.5 -67v-31q0 -20 -49.5 -66.5t-69.5 -46.5q-31 0 -77 36.5t-46 64.5z" />
<glyph unicode="/" horiz-adv-x="796" d="M45 -29l592 1471h102l-594 -1471h-100z" />
<glyph unicode="0" d="M43 627q0 653 432 653q76 0 137 -20.5t102.5 -54.5t72.5 -86t48 -105.5t27.5 -123.5t13.5 -129.5t3 -133.5q0 -84 -7 -156.5t-23.5 -150.5t-48 -138.5t-77.5 -110t-116 -76t-158 -26.5q-76 0 -137 21t-103 55.5t-73 87t-48.5 106.5t-28 124.5t-13.5 130.5t-3 133z M209 625q0 -60 1.5 -106.5t7.5 -103.5t16 -99.5t28.5 -85t43.5 -69.5t62.5 -44t84.5 -17q54 0 97 21t70 60.5t46 87t28.5 110.5t13 120t3.5 126q0 72 -2.5 124.5t-10 117.5t-24 109.5t-42.5 85t-67.5 61t-95.5 20.5q-55 0 -97.5 -20.5t-70 -59t-46.5 -85t-28.5 -108.5 t-13.5 -119t-4 -126z" />
<glyph unicode="1" d="M154 1153q50 12 142 44.5t159 58.5l67 26l35 -31q-4 -62 -4 -96v-1040l213 -58l-18 -57l-254 -2q-40 0 -148 -1t-147 -1l-19 59l213 60v911q0 30 -17 48t-48 18h-162z" />
<glyph unicode="2" d="M41 53q47 53 118.5 131.5t113 124.5t97.5 111.5t89 108.5t69.5 98t55.5 97.5t32 90t13 92.5q0 115 -60.5 174.5t-175.5 59.5q-60 0 -147 -21l-13 -215l-43 -18q-13 11 -33 29t-53.5 58.5t-33.5 63.5q0 21 74 81t155 110.5t100 50.5q194 0 301 -92t107 -275 q0 -58 -18.5 -118.5t-42.5 -107.5t-69 -107.5t-75 -95.5t-84 -95l-219 -235l8 -27q157 -16 289 -16q33 0 78 10q45 12 151 180l56 -20l-62 -281h-364q-61 0 -203 -3t-193 -3z" />
<glyph unicode="3" d="M74 104l18 35q29 1 115 1.5t145.5 3.5t75.5 10q88 39 155.5 118t67.5 168q0 91 -62 138t-155 47q-91 0 -227 -25l-29 64q6 3 48.5 23t63.5 30t66 34t71 41.5t61 44.5t54.5 50.5t33.5 52.5t14 57q0 75 -49 113.5t-129 38.5q-11 0 -36.5 -9t-61 -25t-66 -30.5t-67.5 -32.5 t-50 -24l-31 66q53 40 178 113t152 73q95 0 167.5 -24t118.5 -82t46 -144q0 -41 -11.5 -77t-27.5 -61.5t-46.5 -53t-54 -44.5t-63.5 -44l2 -7q118 -5 191 -76t73 -190q0 -65 -29 -130.5t-77.5 -120t-112.5 -102.5t-132.5 -81.5t-139 -52.5t-131.5 -19q-26 0 -58.5 33 t-51.5 66z" />
<glyph unicode="4" d="M18 430q46 61 95 131l491 721l92 -27v-739q0 -20 7.5 -28.5t15.5 -9.5t31 -1h133l12 -14l-25 -92h-174v-375l-164 -25l5 330q0 39 -20 54.5t-58 15.5h-414zM217 512l16 -29q43 -4 123 -4h181l4 508l-9 4z" />
<glyph unicode="5" d="M59 100l21 37q290 0 328 21q59 36 122 96q45 47 76 108.5t31 120.5q0 83 -57 140q-23 22 -61 42t-58.5 28.5t-73.5 27.5l-184 70q-49 18 -49 75q0 14 32.5 110.5t65.5 186.5l33 90l555 4q-27 -91 -43 -110q-9 -9 -24 -13.5t-23.5 -5.5t-38.5 -4l-349 -22l-38 -29 l-43 -139q23 -8 89.5 -29.5t102 -35t88 -35.5t91.5 -47t69 -54q86 -86 86 -209q0 -82 -42 -166.5t-114 -156.5q-104 -104 -227.5 -167t-235.5 -63q-17 0 -36.5 13.5t-35.5 32.5t-29 37.5t-21 31.5z" />
<glyph unicode="6" d="M68 446q0 124 40.5 239t109.5 205.5t162.5 168t196 132t214.5 91.5l36 -57q-93 -44 -176.5 -100.5t-160.5 -131t-132.5 -157.5t-88.5 -184.5t-33 -207.5q0 -75 19.5 -177t51.5 -134q31 -31 158 -31q120 0 180 52.5t60 167.5q0 62 -11 113.5t-35 96t-69 70t-107 25.5h-125 l-10 59l223 64q141 0 222 -104t81 -253q0 -183 -111.5 -302.5t-289.5 -119.5q-103 0 -181.5 36t-127 101t-72.5 150t-24 188z" />
<glyph unicode="7" d="M63 950l56 277l26 26h369q40 0 175 3.5t175 3.5l21 -54q-27 -56 -104 -212t-119 -244t-92.5 -206t-75.5 -196q-9 -29 -13 -81.5t-5 -88.5t0 -108.5t1 -83.5l-37 -17q-42 0 -96.5 55t-54.5 93q0 59 25 145.5t63 161.5l325 661l-18 25q-24 1 -162 10.5t-209 9.5 q-17 0 -32.5 -3.5t-29.5 -13t-24.5 -17t-23 -24.5t-19 -25.5t-18 -30.5t-15 -28.5t-15.5 -31.5t-13 -28z" />
<glyph unicode="8" d="M57 266q0 48 17.5 93.5t43.5 81t65.5 71t73 60t77.5 51.5q-51 30 -88.5 59.5t-71.5 69t-52 88.5t-18 106q0 82 34 147.5t91 105t126.5 60.5t146.5 21q74 0 135 -15t112 -47.5t79 -90.5t28 -138q0 -33 -9.5 -64t-22.5 -55.5t-38 -51t-44 -43t-52 -39.5t-51 -34t-53 -32 q60 -36 100.5 -65.5t87 -74.5t70.5 -99t24 -116q0 -70 -23.5 -128.5t-63.5 -98t-94 -67t-114 -40t-124 -12.5q-59 0 -112.5 9t-105.5 30.5t-90 54.5t-61 85t-23 118zM217 264q0 -88 37 -125q47 -47 180 -47q63 0 119.5 19.5t97.5 66.5t41 113q0 32 -14 62.5t-33 53t-50.5 47 t-55.5 40t-59.5 37t-51.5 32.5q-211 -142 -211 -299zM268 977q0 -33 11 -62t26.5 -49.5t42 -42t47 -34t53.5 -32t50 -30.5q44 29 74.5 54t61 59.5t46.5 76t16 89.5q0 100 -30 127q-12 14 -55.5 24t-96.5 10q-63 0 -116 -17t-91.5 -61.5t-38.5 -111.5z" />
<glyph unicode="9" d="M57 858q0 184 111.5 303t290.5 119q137 0 230 -64t134 -168.5t41 -242.5q0 -154 -61 -292.5t-164.5 -241.5t-229.5 -179t-268 -121l-37 58q94 44 178 100.5t161 130.5t133 157t89 184t33 208q0 73 -20.5 175t-52.5 134q-27 29 -158 29q-120 0 -180 -51.5t-60 -165.5 q0 -62 11 -113t35 -95.5t69 -69.5t107 -25h124l13 -60l-224 -63q-143 0 -224 102.5t-81 251.5z" />
<glyph unicode=":" horiz-adv-x="436" d="M133 72v28q0 20 51.5 69.5t71.5 49.5q32 0 75.5 -37t43.5 -67v-31q0 -20 -49.5 -66.5t-69.5 -46.5q-31 0 -77 36.5t-46 64.5zM133 776v29q0 19 51.5 69t71.5 50q31 0 75 -38t44 -67v-31q0 -20 -49.5 -67t-69.5 -47q-30 0 -76.5 37t-46.5 65z" />
<glyph unicode=";" horiz-adv-x="436" d="M80 -301l158 301l-111 68v49q1 1 15.5 16t28 28.5t30.5 29t30.5 25t20.5 9.5q38 0 97 -58.5t59 -98.5t-55.5 -126.5t-112.5 -155.5t-101 -116zM133 776v29q0 19 51.5 69t71.5 50q31 0 75 -38t44 -67v-31q0 -20 -49.5 -67t-69.5 -47q-30 0 -76.5 37t-46.5 65z" />
<glyph unicode="&#x3c;" horiz-adv-x="925" d="M55 459v119l817 389v-109l-722 -342l722 -338v-110z" />
<glyph unicode="=" horiz-adv-x="925" d="M55 293v88h817v-88h-817zM55 655v90h817v-90h-817z" />
<glyph unicode="&#x3e;" horiz-adv-x="925" d="M55 68v110l723 338l-723 342v109l817 -389v-119z" />
<glyph unicode="?" horiz-adv-x="798" d="M94 1296q8 13 20.5 33t44.5 53t56 33q111 0 262 -123q85 -72 138 -172t53 -205q0 -47 -11.5 -88.5t-29.5 -73t-48 -60.5t-58 -48.5t-69.5 -41t-72.5 -35t-77 -32.5q-11 -5 -18.5 -8t-15.5 -6l39 -164l-74 -20q-5 18 -22.5 77t-28 101t-10.5 64q0 24 10 38t33 31 q24 17 68.5 42t79 45.5t69.5 49.5t54.5 68t19.5 86q0 64 -38 161t-83 142q-4 4 -14.5 6.5t-29 4t-36.5 2.5t-45.5 1h-47.5h-51.5h-47.5zM170 72v28q0 20 51.5 69.5t71.5 49.5q32 0 75.5 -37t43.5 -67v-31q0 -20 -49.5 -66.5t-69.5 -46.5q-31 0 -77 36.5t-46 64.5z" />
<glyph unicode="@" horiz-adv-x="1662" d="M104 436q0 144 30 276t92.5 246t152 197.5t215.5 131.5t276 48q347 0 520 -193t173 -552q0 -93 -17 -183t-50.5 -170.5t-89 -143.5t-126.5 -93q-23 -9 -60 -18t-51 -9l-41 29l-131 342h-49q-200 0 -264 -6l-14 -12l-80 -217l10 -15l115 -37l-15 -55h-159q-70 0 -172 -8 l-15 57l115 45q7 2 12 23l303 794l136 62l329 -879l17 -4q51 23 93 82.5t65.5 132.5t36 145t12.5 132q0 153 -34 273t-105 210.5t-188.5 139t-275.5 48.5q-133 0 -244.5 -44t-189.5 -120t-132 -180t-79.5 -222.5t-25.5 -248.5q0 -177 37.5 -317t113 -243t198.5 -158.5 t286 -55.5q148 0 315 41l20 -80q-166 -41 -338 -41q-188 0 -328.5 60.5t-227 174t-129 267t-42.5 348.5zM709 428h217l30 2l7 12l-117 322h-17z" />
<glyph unicode="A" horiz-adv-x="1249" d="M-18 51l124 64l416 1138l168 82l428 -1218l150 -60l-13 -57h-231q-43 0 -91.5 -1t-108.5 -2.5t-93 -2.5l-12 57l174 66l12 28l-110 340h-220q-132 0 -198 -8l-25 -24l-98 -308l14 -28l150 -60l-12 -57h-195q-127 0 -219 -6zM397 582h273q21 0 71 4l17 18l-156 473l-20 6z " />
<glyph unicode="B" horiz-adv-x="1284" d="M92 51l191 68v1079l-187 53l17 58q465 8 528 8q81 0 145 -8.5t122.5 -30t97 -56.5t61.5 -91t23 -130q0 -111 -70 -183t-180 -95v-6q144 -10 229.5 -100.5t85.5 -231.5q0 -114 -39 -191.5t-115 -119t-168 -58t-219 -16.5q-422 -2 -510 -6zM455 268q0 -87 42 -128.5 t130 -41.5q93 0 152.5 11.5t103 43.5t62 88t18.5 144q0 64 -20 111.5t-52 75.5t-80 45.5t-96.5 23.5t-108.5 6q-49 0 -151 -4v-375zM455 743q49 1 81 2t83.5 8t86 17t74.5 29t64 45t40.5 65.5t16.5 89.5q0 54 -15 105t-40 76q-35 32 -144 32q-150 0 -208 -18 q-19 -6 -27.5 -16.5t-10 -21t-1.5 -34.5v-379z" />
<glyph unicode="C" horiz-adv-x="1257" d="M74 623q0 152 50 284t138.5 226t217 148t278.5 54q239 0 422 -80v-303l-60 -14q-79 198 -96 215q-21 20 -110.5 30.5t-149.5 10.5q-290 0 -391 -104q-107 -104 -107 -379q0 -98 14 -185t48 -168t85.5 -139t132.5 -92.5t183 -34.5q92 0 182 26.5t144 84.5q36 39 106 196 l60 -20l-50 -279q-201 -129 -454 -129q-314 0 -478.5 168t-164.5 484z" />
<glyph unicode="D" horiz-adv-x="1486" d="M92 51l191 66v1081l-191 57l14 54q539 8 676 8q312 0 471.5 -160.5t159.5 -472.5q0 -199 -81.5 -354.5t-233.5 -242.5t-350 -87q-119 0 -356 -2t-288 -2zM459 309q0 -123 45.5 -163t167.5 -40h67q121 0 213.5 42t148 117t83.5 172.5t28 215.5q0 122 -37 278.5t-102 221.5 q-51 51 -270 51q-70 0 -173.5 -9.5t-135.5 -27.5q-22 -10 -28.5 -21t-6.5 -36v-801z" />
<glyph unicode="E" horiz-adv-x="1191" d="M92 53l191 64v1083l-191 47l17 62l458 -2q65 0 457 8l33 -29v-266l-68 -16l-18 67q-19 72 -62.5 101.5t-138.5 29.5q-276 0 -297 -31q-14 -18 -14 -65v-361h317l60 173l63 -11q-6 -108 -6 -213q0 -1 6 -205l-65 -12l-21 64q-15 53 -45.5 79.5t-93.5 26.5q-45 0 -197 -4 l-18 -27v-354q0 -50 17.5 -82.5t51 -48t67.5 -20.5t83 -5q57 0 168 12.5t129 28.5q7 8 32 53.5t47 87.5l21 42l62 -23l-62 -307h-481q-367 0 -490 -6z" />
<glyph unicode="F" horiz-adv-x="1062" d="M92 53l191 64v1081l-191 49l17 60l466 2q71 0 221 3t212 3l30 -27v-270l-63 -14l-29 86q-18 59 -56 85.5t-120 26.5q-272 0 -297 -31q-14 -18 -14 -65v-361h299l61 173l64 -11q0 -36 -3 -106.5t-3 -106.5q0 -103 6 -205l-70 -12l-18 66q-13 53 -41.5 78.5t-91.5 25.5 q-34 0 -92 -1t-93 -1l-18 -27v-499l192 -58l-14 -61h-234l-299 -6z" />
<glyph unicode="G" horiz-adv-x="1366" d="M74 623q0 152 50 284t138.5 226t217 148t278.5 54q239 0 422 -80v-303l-60 -14q-80 199 -96 215q-19 19 -107 30t-153 11q-287 0 -391 -104q-107 -107 -107 -381q0 -97 14 -183t48 -167t85.5 -139t132.5 -93t183 -35q80 0 158.5 19.5t113.5 54.5q17 15 17 190 q0 80 -32 108t-99 28h-107l-18 22l18 70h549l19 -23l-21 -67h-57q-49 0 -66.5 -21t-17.5 -74v-315q-189 -113 -469 -113q-314 0 -478.5 168t-164.5 484z" />
<glyph unicode="H" horiz-adv-x="1585" d="M92 53l191 64v1081l-191 51l17 60h266q129 0 258 6l16 -60l-190 -57v-453h311q136 0 334 7l22 26v420l-190 51l16 60h267q125 0 254 6l18 -60l-191 -59v-1079l193 -58l-12 -59h-271q-38 0 -81.5 -1t-97 -2.5t-83.5 -2.5l-10 59l188 66v528h-460q-106 0 -187 -8l-20 -25 v-495l190 -60l-12 -59h-270q-5 0 -263 -6z" />
<glyph unicode="I" horiz-adv-x="743" d="M92 53l191 64v1081l-191 51l19 60h262q131 0 260 6l16 -60l-190 -57v-1079l192 -58l-12 -61h-256l-279 -6z" />
<glyph unicode="J" horiz-adv-x="686" d="M-63 -371l20 41q37 0 142 13t118 26q53 53 53 289q0 75 -12 269.5t-12 267.5v663l-191 51l17 60h270q126 0 252 6l18 -60l-192 -57v-637q0 -58 9 -262t9 -260q0 -96 -30 -191t-86 -167q-29 -35 -51 -58.5t-56.5 -53.5t-73 -45.5t-78.5 -15.5q-29 0 -55.5 21.5t-40.5 43.5 t-30 56z" />
<glyph unicode="K" horiz-adv-x="1243" d="M92 53l191 64v1081l-191 51l17 60h266q123 0 243 6l17 -60l-176 -57v-1079l176 -60l-10 -59h-222q-41 0 -299 -6zM494 719l401 491l45 99h84q96 0 190 6l19 -60l-172 -55l-387 -450l438 -635l150 -54l-7 -61h-88q-91 0 -140 14t-85 48t-88 112z" />
<glyph unicode="L" horiz-adv-x="1038" d="M92 53l191 64v1081l-191 51l17 60h268q129 0 258 6l14 -60l-190 -57v-938q0 -89 51 -121.5t145 -32.5q44 0 132 14t104 30q7 7 32 52t47 86l21 42l66 -23l-66 -307h-389q-282 0 -498 -6z" />
<glyph unicode="M" horiz-adv-x="1830" d="M74 53l190 64l66 1007v9q0 31 -19 53q-22 24 -61 33l-113 30l17 60l198 -2q44 0 203 6l340 -1030h8l375 1026l149 -2h12q61 0 247 8l18 -60l-193 -57l35 -1081l193 -58l-13 -59h-272q-2 0 -260 -6l-12 61l190 64l-35 1003h-8l-434 -1142l-57 -9l-392 1129h-8l-47 -981 l191 -58l-11 -61h-225q-4 0 -262 -6z" />
<glyph unicode="N" horiz-adv-x="1544" d="M84 53l188 64l13 1020v6q0 54 -56 69l-133 35l13 60q231 4 346 8l712 -961h11l-2 846l-191 47l12 60l220 2q132 0 258 6l14 -60l-191 -55l-14 -1216l-59 -13l-824 1110h-10l6 -962l191 -58l-13 -61h-221q-2 0 -260 -6z" />
<glyph unicode="O" horiz-adv-x="1456" d="M74 616q0 196 80.5 359t234 261.5t350.5 98.5q317 0 480 -165t163 -482q0 -196 -80.5 -358.5t-234 -260.5t-350.5 -98q-315 0 -479 165t-164 480zM264 692q0 -93 13.5 -176t46.5 -162t83 -136t129 -91.5t179 -34.5q125 0 216.5 41.5t145 117t78.5 172.5t25 218 q0 106 -10 184t-38.5 150.5t-77 118t-128 72t-189.5 26.5q-92 0 -210.5 -21.5t-155.5 -58.5q-41 -41 -74 -171t-33 -249z" />
<glyph unicode="P" horiz-adv-x="1132" d="M92 53l193 64v1081l-193 49l17 60q467 8 563 8q432 0 432 -369q0 -158 -88 -246q-47 -47 -114 -77.5t-149 -43t-144.5 -16.5t-149.5 -4v-440l194 -58l-12 -61h-256q-152 0 -281 -6zM459 653h102q155 0 253.5 76t98.5 225q0 64 -19.5 129.5t-45.5 90.5q-28 28 -234 28 q-83 0 -119 -36.5t-36 -121.5v-391z" />
<glyph unicode="Q" horiz-adv-x="1458" d="M74 618q0 196 80.5 358.5t234 260.5t350.5 98q317 0 480 -165t163 -482q0 -154 -52.5 -295t-162 -249t-258.5 -144l-16 -31q212 -186 520 -329l8 -48q-12 -9 -31.5 -23t-68 -37.5t-82.5 -23.5q-26 0 -63 19.5t-80.5 55.5t-84.5 74t-90 90t-80 86.5t-71.5 80.5t-50.5 57 h-4q-311 0 -475 165q-166 166 -166 482zM264 692q0 -93 13.5 -176t46.5 -162t83 -136t129 -91.5t179 -34.5q125 0 216.5 41.5t145 117t78.5 172.5t25 218q0 106 -10 184t-38.5 150t-77 117t-128 71.5t-189.5 26.5q-89 0 -208 -21t-156 -59q-49 -50 -79 -184.5t-30 -233.5z " />
<glyph unicode="R" horiz-adv-x="1290" d="M92 53l191 64v1081l-187 57l17 54q389 8 567 8q412 0 412 -328q0 -137 -84.5 -223.5t-225.5 -101.5l-2 -11q107 -28 166 -137l215 -399l148 -54l-6 -63h-84q-58 0 -91.5 3t-65 11.5t-53 28.5t-42 49t-45.5 78l-179 346q-34 66 -89 88.5t-142 22.5h-55v-510l190 -56 l-12 -61h-234q-37 0 -295 -6zM455 723q65 0 116 4t104.5 13.5t92 29t70 49t47.5 74t16 102.5q0 54 -15 105t-40 76q-35 32 -144 32q-150 0 -208 -18q-19 -6 -27.5 -16.5t-10 -21t-1.5 -34.5v-395z" />
<glyph unicode="S" horiz-adv-x="1036" d="M129 293l74 22l59 -104q32 -54 78 -79.5t121 -25.5t135.5 17.5t104.5 65.5t44 122q0 29 -8 55t-19 46t-33 42t-39 36t-49 34t-51 30.5t-57.5 31t-56.5 30.5q-48 26 -81.5 48t-71 54.5t-60 66.5t-38 80.5t-15.5 99.5q0 116 59.5 201.5t157 127t219.5 41.5q153 0 268 -28 v-299l-61 -15l-94 203q-81 6 -97 6q-113 0 -196.5 -50t-83.5 -144q0 -46 18.5 -83.5t70.5 -76.5t78.5 -55.5t107.5 -59.5q7 -4 10 -6q48 -26 77.5 -44t70.5 -46t66 -55.5t49.5 -63.5t36 -79t11.5 -93q0 -94 -38.5 -167.5t-104 -118t-146 -67t-170.5 -22.5q-199 0 -291 29z " />
<glyph unicode="T" horiz-adv-x="1062" d="M0 977l18 330l521 2q265 0 493 6l31 -27q-14 -138 -21 -297l-79 -14l-17 96q-12 62 -43.5 95.5t-99.5 33.5h-187v-1083l211 -58l-14 -61h-289q-41 0 -87.5 -1t-103.5 -2.5t-89 -2.5l-11 59l209 64v1054l-26 29l-82 -2q-106 -3 -155.5 -33t-74.5 -121l-26 -94z" />
<glyph unicode="U" horiz-adv-x="1454" d="M37 1249l16 60h260q133 0 262 6l19 -60l-193 -57v-760q0 -181 78 -261.5t260 -80.5q111 0 185 24.5t118 77.5t62 127.5t18 184.5v590q0 61 -25 89t-75 40l-90 20l16 60h213q132 0 258 6l17 -60l-191 -61q-4 -488 -4 -721q0 -256 -125 -379t-383 -123q-87 0 -160 12.5 t-137.5 41.5t-109.5 74.5t-71 115.5t-26 160v823z" />
<glyph unicode="V" horiz-adv-x="1187" d="M-18 1247l12 60h235q79 0 267 8l12 -60l-174 -67l-12 -29l309 -852l22 -8q291 821 291 862q0 25 -12.5 39t-44.5 21q-74 20 -103 26l13 60h202q79 0 197 8l10 -60l-119 -61l-434 -1196l-73 -27l-474 1225z" />
<glyph unicode="W" horiz-adv-x="1705" d="M-18 1247l12 60l733 2q199 0 340 6l16 -64l-174 -61l-14 -31l283 -862l22 -10q264 809 264 868q0 51 -53 64l-113 26l15 64h172q143 0 229 6l12 -60l-116 -59l-404 -1196l-78 -29l-241 670l-256 -643l-76 -27l-455 1225zM307 1182l311 -887l23 -8l193 497l-136 369 q-9 25 -23.5 41t-34.5 23.5t-38.5 9.5t-46.5 2q-116 0 -248 -47z" />
<glyph unicode="X" horiz-adv-x="1277" d="M0 55l98 37q97 38 131 92l314 471l-312 502q-22 34 -45 48.5t-65 23.5l-90 20l14 60h254q217 0 311 6l13 -58l-156 -65l-12 -35l200 -334q232 362 240 387l35 99h98q122 0 201 6l12 -60l-162 -55q-14 -5 -49 -46.5t-82 -110t-84.5 -124t-82.5 -125.5t-50 -77l348 -553 q20 -33 48 -49t77 -31l74 -25l-16 -59h-101l-235 -6l-19 84l-293 473l-276 -436l172 -58l-12 -57h-258l-228 -6z" />
<glyph unicode="Y" horiz-adv-x="1173" d="M-18 1247l12 60l219 2q73 0 262 6l12 -60l-143 -65l-10 -29l272 -465l25 -8q276 457 276 488q0 21 -7.5 31t-31.5 16l-98 26l14 60h203q131 0 193 6l12 -60l-115 -61q-16 -8 -115 -169t-190 -317l-92 -157v-428l209 -62l-10 -61h-287q-93 0 -281 -8l-12 59l209 70v366 q0 43 -19 74l-389 637z" />
<glyph unicode="Z" horiz-adv-x="1122" d="M74 104l706 1061l-12 23q-5 4 -166.5 9t-216.5 5q-81 0 -126 -36.5t-69 -104.5l-36 -111l-62 19l14 311l29 29h404l460 4l41 -66l-716 -1081l16 -33q208 -27 369 -27q68 0 112 9t75 34t49.5 53.5t43.5 82.5l31 63l65 -26l-67 -322h-428q-54 0 -244 -2t-254 -2z" />
<glyph unicode="[" horiz-adv-x="681" d="M195 -377v1788l34 31h256q109 0 160 -8q6 -8 6 -27q0 -12 -4 -32.5t-10 -20.5h-229q-77 0 -96 -21.5t-19 -99.5v-1432q0 -78 19.5 -98t97.5 -20h225q6 0 10 -23t4 -37q0 -6 -4 -22q-13 -9 -213 -9h-203z" />
<glyph unicode="\" horiz-adv-x="796" d="M57 1442h101l594 -1471h-101z" />
<glyph unicode="]" horiz-adv-x="681" d="M37 1407q0 19 4 27q49 8 147 8h271l33 -31v-1788l-33 -31h-273q-92 0 -145 9q-2 4 -2 18q0 64 14 64h226q74 0 95 18.5t21 91.5v1448q0 73 -20.5 93t-93.5 20h-232q-5 0 -8.5 21t-3.5 32z" />
<glyph unicode="^" horiz-adv-x="925" d="M29 0l374 924h121l373 -924h-115l-319 829l-318 -829h-116z" />
<glyph unicode="_" horiz-adv-x="1024" d="M0 -211h1024v-82h-1024v82z" />
<glyph unicode="`" horiz-adv-x="569" d="M-8 1327v43q15 13 59.5 43.5t52.5 30.5q12 0 94.5 -83.5t159.5 -166.5l76 -84l-65 -16z" />
<glyph unicode="a" horiz-adv-x="991" d="M-18 51l120 55l316 844l129 29l330 -868l133 -56l-11 -55h-194q-4 0 -238 -6l-12 57l137 51l15 15l-82 233h-50q-126 0 -264 -6l-16 -12l-72 -211l10 -15l109 -49l-14 -57h-160q-23 0 -176 -6zM336 438h217l31 2l6 11l-117 331h-12z" />
<glyph unicode="b" horiz-adv-x="1089" d="M92 53l172 62v725l-170 55l8 59q308 7 451 7q63 0 110 -5t93.5 -20t76 -40t48 -68.5t18.5 -102.5q0 -67 -41.5 -119.5t-103.5 -77.5q93 -26 144.5 -87.5t51.5 -159.5q0 -68 -20 -117.5t-55 -80.5t-90.5 -49.5t-117.5 -25.5t-145 -8l-420 -4zM416 215q0 -64 30 -93.5 t95 -29.5q67 0 108 7t74 27t47 58t14 99q0 46 -14.5 80t-37 54t-58 31.5t-69.5 15t-79 3.5q-73 0 -110 -2v-250zM416 553q40 1 67.5 2t69 6.5t69.5 16.5t55.5 28t41.5 45.5t14 65.5q0 78 -39 114q-12 11 -44.5 17t-57.5 6q-111 0 -148 -12q-19 -6 -23.5 -15t-4.5 -32v-242z " />
<glyph unicode="c" horiz-adv-x="980" d="M74 451q0 232 143.5 380t372.5 148q193 0 323 -61v-244l-65 -17q-56 150 -68 162t-82 20.5t-108 8.5q-219 0 -283 -64q-69 -72 -69 -270q0 -428 325 -428q66 0 135 17.5t105 54.5q6 7 26 46.5t37 75.5l17 35l61 -22l-37 -223q-156 -101 -352 -101q-233 0 -357 122 t-124 360z" />
<glyph unicode="d" horiz-adv-x="1191" d="M92 53l170 62v725l-170 55l6 57q365 9 545 9q237 0 356 -110.5t119 -348.5q0 -228 -141 -365t-365 -137l-512 -4zM414 233q0 -88 44.5 -113.5t153.5 -25.5q166 0 252 102.5t86 276.5q0 92 -23.5 198.5t-74.5 155.5q-35 35 -199 35q-136 0 -215 -24q-24 -6 -24 -31v-574z " />
<glyph unicode="e" horiz-adv-x="1005" d="M92 53l170 62v725l-170 55l14 59h412q30 0 161 3.5t171 3.5l27 -25v-213l-68 -16l-18 61q-15 52 -45.5 71t-104.5 19q-201 0 -223 -20q-3 -3 -4 -10t-1 -14t0.5 -16.5t0.5 -11.5v-229h202l9 12l34 119l64 -12q-2 -55 -2 -166q0 -107 2 -160l-64 -14l-16 63q-14 68 -76 68 q-96 0 -145 -2l-8 -12v-260q0 -26 11.5 -45t27 -29t40 -15.5t42.5 -6.5t43 -1q41 0 125.5 9.5t97.5 21.5q4 4 21 38.5t32 66.5l14 32l62 -26l-41 -238h-314l-473 -4z" />
<glyph unicode="f" horiz-adv-x="901" d="M92 53l170 62v725l-170 55l14 59h392l342 2l24 -24v-209l-67 -16l-21 63q-17 54 -47.5 71t-107.5 17q-187 0 -203 -18q-4 -4 -5 -12.5t0 -22.5l1 -14v-234h186l12 12l35 119l64 -12q-4 -110 -4 -166q0 -54 4 -160l-64 -14l-18 70q-9 33 -27 47t-51 14l-129 -2l-8 -12 v-336l184 -60l-10 -57h-254l-232 -4z" />
<glyph unicode="g" horiz-adv-x="1085" d="M74 449q0 233 143.5 381.5t372.5 148.5q200 0 323 -59v-244l-65 -17q-56 146 -70 162q-13 13 -79 20t-109 7q-219 0 -285 -66q-67 -70 -67 -272q0 -424 325 -424q60 0 120.5 12.5t78.5 30.5q6 8 6 166q0 65 -84 65h-104l-17 27l21 70h440l25 -25l-23 -70h-45 q-36 0 -49.5 -10t-13.5 -45v-248q-156 -90 -363 -90q-234 0 -357.5 121.5t-123.5 358.5z" />
<glyph unicode="h" horiz-adv-x="1302" d="M92 53l170 60v727l-168 53l6 61h228q38 0 110 2t107 2l10 -61l-141 -57v-281h142q199 0 314 4l15 15v262l-142 53l9 61h198q44 0 129.5 2t118.5 2l10 -61l-172 -57v-723l170 -60l-6 -57h-223l-223 -6l-9 59l140 62v350h-275q-121 0 -182 -6l-14 -15v-329l141 -58l-10 -57 h-211l-232 -6z" />
<glyph unicode="i" horiz-adv-x="675" d="M92 53l170 62v725l-170 55l8 59h222l253 4l7 -61l-168 -57v-723l170 -60l-9 -57h-221l-252 -6z" />
<glyph unicode="j" horiz-adv-x="624" d="M18 -272l15 30q178 9 196 27q35 35 35 203q0 55 -8 197.5t-8 197.5v455l-170 55l8 61h231l242 4l10 -63l-172 -57v-437q0 -42 9.5 -190.5t9.5 -190.5q0 -85 -32 -169.5t-87 -139.5q-90 -90 -174 -90q-24 0 -50 26.5t-41 53.5z" />
<glyph unicode="k" horiz-adv-x="1056" d="M92 53l168 62v725l-168 55l12 59h234l199 4l8 -61l-133 -57v-723l135 -60l-10 -57h-203l-234 -4zM446 522l304 361l14 71l250 2l8 -59l-160 -59l-256 -295l305 -426l146 -62l-10 -55h-103q-58 0 -87.5 3.5t-58.5 21t-49 42.5t-55 80z" />
<glyph unicode="l" horiz-adv-x="831" d="M92 53l168 62v725l-168 55l12 59h236l231 4l9 -59l-168 -59v-643q0 -41 21 -64.5t48.5 -30t67.5 -6.5q34 0 92.5 9t71.5 22q4 4 23 38.5t36 66.5l16 32l62 -22l-51 -242h-328l-371 -4z" />
<glyph unicode="m" horiz-adv-x="1490" d="M74 51l166 62l57 669q2 31 -13 49.5t-51 30.5l-96 31l13 59l174 2l170 2l239 -720l256 716l146 2l215 2l6 -59l-170 -57l47 -729l166 -54l-6 -57h-219l-211 -6l-13 59l131 60l-37 704l-307 -835l-57 -11l-281 826l-45 -684l131 -56l-10 -57h-164l-227 -6z" />
<glyph unicode="n" horiz-adv-x="1232" d="M84 55l164 60l8 673q0 52 -66 76l-98 33l12 57l291 7l531 -685q-3 51 -8 187l-7 383l-149 51l14 57h178l209 7l15 -58l-150 -57l-10 -854l-62 -21l-604 797q2 -40 4 -118.5t2 -86.5l7 -446l147 -58l-10 -59h-183l-227 -4z" />
<glyph unicode="o" horiz-adv-x="1134" d="M74 449q0 148 62.5 268.5t178 191t260.5 70.5q236 0 361 -121t125 -358q0 -227 -140.5 -379t-361.5 -152q-233 0 -359 122t-126 358zM236 502q0 -84 17 -155.5t53 -131.5t100 -94.5t151 -34.5q171 0 255.5 101.5t84.5 277.5q0 189 -77.5 286t-252.5 97q-62 0 -148 -13.5 t-110 -37.5q-28 -27 -50.5 -121t-22.5 -174z" />
<glyph unicode="p" horiz-adv-x="954" d="M92 53l168 62v725l-168 57l6 57q319 4 477 4q161 0 247.5 -70.5t86.5 -213.5q0 -57 -18.5 -101.5t-45.5 -73.5t-72 -49.5t-83.5 -31t-96 -16t-92.5 -6.5t-89 -1v-278l168 -60l-7 -57h-221l-252 -6zM412 489q10 -1 22.5 -1t28.5 0.5t24 0.5q112 0 184 50.5t72 150.5 q0 43 -14 87t-33 61q-20 18 -170 18q-61 0 -87.5 -24t-26.5 -80v-263z" />
<glyph unicode="q" horiz-adv-x="1140" d="M74 446q0 149 62 270t177.5 192t261.5 71q237 0 361.5 -122t124.5 -361q0 -177 -97.5 -318.5t-261.5 -183.5l-10 -17q131 -114 383 -233l10 -43q-31 -22 -46.5 -32t-45 -23t-53.5 -13t-60.5 21.5t-69.5 49.5t-78 73t-71 74t-63.5 72t-42.5 48q-231 0 -356 120.5 t-125 354.5zM236 502q0 -84 17 -155.5t53 -131.5t100 -94.5t151 -34.5q171 0 255.5 101.5t84.5 277.5q0 92 -15.5 158.5t-51.5 117.5t-100 77t-157 26q-76 0 -157.5 -12t-108.5 -39q-31 -31 -51 -127.5t-20 -163.5z" />
<glyph unicode="r" horiz-adv-x="1050" d="M92 53l170 62v725l-170 59l8 55q326 4 467 4q332 0 332 -243q0 -96 -65 -159t-160 -79v-8q44 -13 72 -39.5t53 -71.5l139 -256l121 -47l-8 -55h-72q-47 0 -71 1.5t-50.5 7.5t-42.5 20t-32.5 36.5t-34.5 59.5l-123 248q-19 39 -58.5 58.5t-85.5 19.5h-67v-336l139 -60 l-10 -55h-197l-244 -6zM412 541q23 -2 71 -2q108 0 178 44t70 130q0 38 -13 76t-32 53q-20 16 -164 16q-59 0 -84.5 -21.5t-25.5 -70.5v-225z" />
<glyph unicode="s" horiz-adv-x="868" d="M129 248l64 26q61 -147 79 -165q31 -31 80 -31q44 0 83.5 7.5t77.5 24t60.5 49.5t22.5 79q0 31 -13 56t-44 47.5t-55.5 36t-75.5 38.5q-50 26 -74.5 40t-66 43t-62 54t-37 63.5t-16.5 81.5q0 73 29 128.5t79 88t110 48.5t128 16q107 0 213 -29v-243l-64 -15l-74 172 q-46 4 -65 4q-125 0 -178 -51q-31 -31 -31 -82q0 -29 13.5 -54t43.5 -47.5t55.5 -37t71.5 -37.5q39 -19 56 -28t52.5 -29.5t53 -34.5t43 -38t37.5 -47t21.5 -53.5t9.5 -64.5q0 -97 -52.5 -165.5t-130.5 -99t-170 -30.5q-124 0 -239 31z" />
<glyph unicode="t" horiz-adv-x="882" d="M37 692q14 205 14 262h404l360 4l31 -26q-10 -96 -17 -227l-73 -15l-13 92q-7 43 -30 59.5t-70 16.5h-127v-741l172 -60l-8 -57h-223l-252 -6l-8 59l170 62v725l-19 14l-76 -2q-68 0 -99 -18.5t-48 -77.5l-21 -78z" />
<glyph unicode="u" horiz-adv-x="1185" d="M47 897l16 57h226l209 4l8 -57l-139 -59v-529q0 -127 55 -180t180 -53q153 0 210.5 63t59.5 219l2 420q0 39 -15 58t-50 30l-80 27l10 57h176l232 4l10 -57l-170 -61v-496q-1 -196 -95 -284.5t-294 -88.5q-64 0 -117.5 7.5t-104 28t-85 53t-55.5 85t-21 121.5v576z" />
<glyph unicode="v" horiz-adv-x="1009" d="M18 899l13 55h178l213 4l14 -57l-123 -49l-10 -14l225 -602l17 -5l211 582q4 10 4 18q0 27 -37 39l-76 27l15 57h167l150 4l12 -57l-104 -53l-334 -858l-70 -21l-360 879z" />
<glyph unicode="w" horiz-adv-x="1421" d="M18 899l15 55h389l455 7l12 -60l-125 -41l-12 -22l202 -596h13l198 571q2 7 2 14q0 28 -45 43l-80 25l15 59h178l156 7l10 -58l-105 -57l-311 -852l-72 -23l-174 463h-14l-178 -442l-70 -21l-352 877zM303 838l223 -600h13l139 342l-86 251q-6 16 -15.5 25.5t-26.5 13 t-26 4t-30 0.5q-40 0 -97.5 -10.5t-93.5 -25.5z" />
<glyph unicode="x" horiz-adv-x="1069" d="M18 53l101 35q59 21 94 68l236 325l-181 283q-33 52 -52.5 72.5t-47.5 27.5l-121 33l14 57h205q106 0 246 4l14 -59l-129 -39l-2 -10l154 -227l172 258l29 73h71q38 0 104 3t85 4l16 -58l-160 -51q-24 -7 -50.5 -37t-74.5 -102l-127 -189l269 -395q17 -24 36.5 -34.5 t55.5 -16.5l76 -19l-17 -59h-127l-180 -4l-22 113l-189 278l-192 -283l118 -47l-12 -57h-180l-217 -4z" />
<glyph unicode="y" horiz-adv-x="993" d="M18 897l15 57h174l205 4l14 -57l-115 -41l-6 -12l205 -316l18 -6l191 310q10 17 2 27t-35 18q-39 10 -59 16l14 57h152l170 4l12 -57q-106 -38 -123 -61l-277 -430v-297l164 -56l-12 -57h-211l-242 -6l-12 59l164 58v258q0 27 -12 45l-293 446z" />
<glyph unicode="z" horiz-adv-x="890" d="M74 -4v92l526 739l-12 15q-152 20 -266 20q-60 0 -90 -24.5t-50 -77.5l-28 -74l-64 16l6 224l29 28h307l352 2l41 -59l-538 -756l8 -18q151 -29 272 -29q58 0 93 13.5t54.5 38t43.5 73.5l30 64l66 -29l-53 -254h-330z" />
<glyph unicode="{" horiz-adv-x="681" d="M98 528q91 38 139 91t48 143v395q0 156 68 220.5t225 64.5q14 0 14 -35q0 -13 -4 -32t-10 -19q-112 0 -154.5 -43t-42.5 -156v-364q0 -39 -1 -60t-4 -51.5t-11 -49t-21.5 -40t-35.5 -38.5t-52 -32v-8q36 -18 60 -41t37 -44t19.5 -55t7.5 -58.5t1 -71.5v-365 q0 -113 42.5 -157t154.5 -44q14 0 14 -53q0 -35 -14 -35q-157 0 -225 66t-68 223v395q0 85 -46 138t-133 92z" />
<glyph unicode="|" horiz-adv-x="454" d="M178 -29v1471h101v-1471h-101z" />
<glyph unicode="}" horiz-adv-x="681" d="M88 -375q0 53 14 53q112 0 154.5 44t42.5 157v365q0 47 1 71.5t7.5 58.5t19.5 55t37 44t60 41v8q-30 15 -52 32t-35.5 38.5t-21.5 40t-11 49t-4 51.5t-1 60v364q0 113 -42.5 156t-154.5 43q-14 0 -14 51q0 35 14 35q157 0 225 -64.5t68 -220.5v-395q0 -90 48 -143 t139 -91l-9 -24q-86 -39 -132 -92t-46 -138v-395q0 -157 -68 -223t-225 -66q-14 0 -14 35z" />
<glyph unicode="~" horiz-adv-x="925" d="M12 459q115 180 264 180q53 0 108.5 -22t95 -48.5t87.5 -48.5t88 -22q107 0 193 139l74 -55q-62 -84 -122.5 -131.5t-142.5 -47.5q-55 0 -109.5 23t-92 50t-87 50t-94.5 23q-56 0 -105 -42.5t-83 -100.5z" />
<glyph d="M0 489v91h88q4 76 8 110l-96 -2v88h111q49 252 182 383q121 121 332 121q143 0 262 -35v-282l-62 -13l-90 187q-51 10 -119 10q-188 0 -254 -66q-66 -63 -92 -303h492v-90h-500q-2 -25 -2 -76v-32h502v-91h-506q0 -211 100 -311q73 -76 187 -76q98 0 144.5 29t94.5 117 l39 74l72 -21l-55 -233q-69 -53 -139.5 -75t-159.5 -22q-198 0 -312 117q-125 123 -139 401h-88z" />
<glyph unicode="&#xa1;" horiz-adv-x="520" d="M109 -330q0 30 34 273q70 473 95 610l24 22h60v-1042l-31 -27q-71 7 -126.5 51.5t-55.5 112.5zM170 807v31q0 20 49.5 66t69.5 46q31 0 77 -36.5t46 -65.5v-27q0 -20 -51.5 -69.5t-71.5 -49.5q-32 0 -75.5 37.5t-43.5 67.5z" />
<glyph unicode="&#xa2;" d="M131 444q0 158 70.5 296.5t201.5 201.5l11 336h96l-10 -305q38 7 90 4l10 303h96l-12 -315q73 -22 117.5 -70t44.5 -121q0 -24 -21.5 -56.5t-42.5 -53.5l-22 -21l-35 12l-74 185q-41 8 -94 8q-148 0 -210 -74t-62 -225q0 -432 297 -432q64 0 136 16.5t126 46.5l18 -45 q-31 -50 -90.5 -90.5t-118.5 -56.5l-10 -363h-94l8 348l-29 -2q-25 -3 -63 4l-10 -350h-93l9 375q-65 27 -113 75t-75 109t-39.5 125.5t-12.5 134.5z" />
<glyph unicode="&#xa3;" d="M63 688v90h205q7 95 44.5 185.5t90.5 154.5q50 61 128 111.5t149 50.5q25 0 55 -31t47 -63l17 -31l-19 -35q-60 0 -162 -7t-114 -19q-61 -63 -74 -316h361v-90h-363l-6 -108h369v-91h-373l-10 -282q-3 -45 0.5 -62.5t17.5 -29.5q16 -19 63 -19q77 0 155.5 15t96.5 47 l90 164l70 -21l-65 -285q-32 -9 -100.5 -15.5t-112.5 -6.5q-55 0 -143 5t-142 5q-106 0 -221 -16l-17 53q87 63 103 78q27 25 35 55t10 96l6 217h-188v93h194l4 108h-201z" />
<glyph unicode="&#xa4;" horiz-adv-x="925" d="M8 903l70 70l147 -144q100 84 242 84q139 0 246 -84l135 142l72 -70l-138 -137q86 -113 86 -252q0 -142 -88 -250l144 -137l-74 -72l-137 144q-107 -84 -246 -84q-138 0 -242 84l-145 -148l-70 74l142 139q-86 121 -86 250q0 127 86 252zM166 514q0 -129 85 -220t214 -91 t216 90.5t87 220.5q0 129 -87 221t-216 92t-214 -91.5t-85 -221.5z" />
<glyph unicode="&#xa5;" d="M-14 1198l14 57h193q114 0 184 2l16 -57l-98 -33l-12 -30l184 -428l25 -9l194 457l19 98h34q27 0 102.5 3.5t86.5 3.5l12 -60l-111 -51q-11 -6 -58 -99t-89 -182l-41 -90h219v-90h-256l-49 -110h303v-91h-315v-378l164 -54l-11 -57h-217q-16 0 -112.5 -3t-126.5 -3 l-13 59l164 56v380h-323v91h299l-52 110h-245v88h202l-182 379z" />
<glyph unicode="&#xa6;" horiz-adv-x="432" d="M168 -29v602h98v-602h-98zM168 838v604h98v-604h-98z" />
<glyph unicode="&#xa7;" horiz-adv-x="833" d="M-14 -258l18 31l326 10q215 140 215 418q0 91 -43 297.5t-43 298.5q0 182 143 305l74 -51q-117 -107 -117 -232q0 -102 44.5 -296t45.5 -298q0 -243 -135 -405q-68 -81 -181 -142t-227 -61q-37 0 -74.5 46t-45.5 79zM156 -98q116 103 116 231q0 101 -44 295.5t-44 298.5 q0 243 133 406q69 81 182.5 141.5t225.5 60.5q37 0 75 -45t46 -78l-17 -30l-327 -13q-109 -72 -162 -173.5t-53 -243.5q0 -91 44 -297t44 -297q0 -185 -144 -308z" />
<glyph unicode="&#xa8;" horiz-adv-x="569" d="M-6 1219v24q0 19 45.5 64t64.5 45q28 0 67.5 -34t39.5 -61v-28q0 -17 -45 -60t-62 -43q-27 0 -68.5 34t-41.5 59zM360 1219v24q0 19 46 64t65 45q28 0 67.5 -34t39.5 -61v-28q0 -17 -45 -60t-62 -43q-27 0 -69 34t-42 59z" />
<glyph unicode="&#xa9;" horiz-adv-x="1388" d="M109 621q0 119 46 227t124.5 186.5t187 125t227.5 46.5q159 0 294 -78t213.5 -213t78.5 -294q0 -160 -78.5 -294.5t-213 -212t-294.5 -77.5q-159 0 -294 78t-213 212.5t-78 293.5zM197 618q0 -134 66.5 -249t181 -182.5t249.5 -67.5t249 67t180.5 182t66.5 250t-66 251.5 t-180.5 185.5t-249.5 69t-250 -69t-181 -185.5t-66 -251.5zM389 606q0 146 92 247t236 101q134 0 227 -49v-147l-45 -8q-4 10 -10 27q-25 70 -44.5 81.5t-110.5 11.5h-3q-128 0 -180.5 -48.5t-52.5 -174.5q0 -46 6 -85t21 -77t38.5 -64.5t62 -42.5t87.5 -16q31 0 53.5 2.5 t39.5 5.5t31.5 13.5t23.5 17.5t21 28t19 34.5t23 46.5l41 -12l-25 -144q-105 -63 -233 -63q-153 0 -235.5 81.5t-82.5 233.5z" />
<glyph unicode="&#xaa;" horiz-adv-x="722" d="M-12 721l82 31q178 407 194 450l35 92l100 41l244 -583l90 -27l-12 -37h-139q-28 0 -85 -2t-85 -2l-11 37l101 31l12 8l-61 155h-35q-128 0 -191 -4l-10 -8l-53 -143l6 -10l84 -25l-10 -37h-111q-61 0 -135 -4zM248 973h174l6 6l-84 215h-8z" />
<glyph unicode="&#xab;" horiz-adv-x="890" d="M31 580l14 43q349 331 361 331q16 0 36.5 -24.5t24.5 -40.5q-3 -3 -21.5 -20t-33 -30t-38.5 -35.5t-43 -40.5t-42.5 -41t-40.5 -41t-32 -35.5t-23 -30t-9 -19.5l285 -281q-4 -15 -24.5 -40t-34.5 -33zM369 580l14 43q9 8 103.5 97t174 161.5t84.5 72.5q14 0 35.5 -25 t24.5 -40q-6 -6 -45 -42t-73.5 -68.5t-74 -72t-63.5 -69t-25 -41.5l285 -281q-6 -15 -26.5 -40t-32.5 -33z" />
<glyph unicode="&#xac;" horiz-adv-x="925" d="M57 657v88h815v-526h-98v438h-717z" />
<glyph unicode="&#xad;" horiz-adv-x="569" d="M59 471v96h473v-96h-473z" />
<glyph unicode="&#xae;" horiz-adv-x="1388" d="M109 621q0 119 46 227t124.5 186.5t187 125t227.5 46.5q159 0 294 -78t213.5 -213t78.5 -294q0 -160 -78.5 -294.5t-213 -212t-294.5 -77.5q-159 0 -294 78t-213 212.5t-78 293.5zM197 616q0 -134 66.5 -249t181 -182.5t249.5 -67.5t249 67t180.5 182t66.5 250t-66 251.5 t-180.5 185.5t-249.5 69t-250 -69t-181 -185.5t-66 -251.5zM406 348l108 39v469l-108 35l4 37q211 4 301 4q213 0 213 -158q0 -61 -42 -101.5t-104 -51.5v-5q52 -15 82 -71l88 -162l80 -33l-6 -35h-47q-70 0 -96 12t-52 66l-79 160q-22 51 -93 51h-43v-217l90 -35l-6 -37 l-284 -4zM610 662h47q70 0 115 27.5t45 84.5q0 24 -9 48.5t-20 33.5q-14 10 -106 10q-39 0 -55.5 -13.5t-16.5 -45.5v-145z" />
<glyph unicode="&#xaf;" horiz-adv-x="569" d="M-33 1167v88h635v-88h-635z" />
<glyph unicode="&#xb0;" horiz-adv-x="743" d="M98 999q0 138 71 224t210 86q140 0 204 -84.5t64 -225.5q0 -139 -71.5 -226t-210.5 -87t-203 85.5t-64 227.5zM199 999q0 -231 170 -231q92 0 134 62.5t42 168.5q0 228 -170 228q-176 0 -176 -228z" />
<glyph unicode="&#xb1;" horiz-adv-x="925" d="M57 0v88h820v-88h-820zM57 571v86h361v379h98v-379h361v-86h-361v-381h-98v381h-361z" />
<glyph unicode="&#xb2;" horiz-adv-x="581" d="M35 680q7 6 44 38t60 53t62.5 57.5t65 65t52 61.5t39.5 61.5t13 50.5q0 67 -28 96t-95 29q-46 0 -82 -8l-16 -123l-19 -14q-11 4 -26.5 12t-41.5 33t-26 49q0 26 98 82.5t129 56.5q98 0 161.5 -41.5t63.5 -134.5q0 -34 -7.5 -65t-26 -60.5t-33.5 -51t-46.5 -50t-47 -42 t-53.5 -43.5t-48 -38l6 -19q71 -8 158 -8q14 0 27 3t25.5 12.5t20 14.5t20 21.5t16.5 21t17.5 24.5t14.5 22l37 -17l-39 -159l-20 -17l-186 -2q-39 0 -142.5 -1t-136.5 -1z" />
<glyph unicode="&#xb3;" horiz-adv-x="581" d="M84 662l12 24h207q47 23 71.5 52.5t24.5 76.5q0 48 -35.5 72t-84.5 24q-60 0 -107 -8l-18 41q10 5 38.5 17.5t47 21.5t44.5 24.5t42 30.5t27.5 35.5t11.5 42.5q0 41 -28 60.5t-71 19.5q-58 0 -149 -53l-23 43q150 94 193 94q50 0 92.5 -11.5t75 -45t32.5 -84.5 q0 -22 -8.5 -42t-16.5 -32t-30.5 -28t-30 -20t-36.5 -19q-6 -3 -9 -5q1 0 12.5 -0.5t17.5 -1t20 -2.5t23 -5.5t22.5 -9.5t22 -13.5t18.5 -19.5t16 -26.5t10 -34.5t4 -44q0 -66 -60.5 -125t-142.5 -91t-153 -32q-17 0 -37.5 18.5t-32.5 37.5z" />
<glyph unicode="&#xb4;" horiz-adv-x="569" d="M137 1110q318 334 340 334q17 0 103 -74v-43l-379 -233z" />
<glyph unicode="&#xb5;" horiz-adv-x="1085" d="M47 877l275 77l34 -34v-621q0 -103 32.5 -148t133.5 -45q98 0 242 46v636l-148 33l-10 56l277 77l32 -32v-787l148 -31l14 -51q-128 -82 -159 -82q-55 0 -148 119h-6q-206 -119 -270 -119q-93 0 -148 39v-174q0 -209 -10 -313l-31 -15q-35 0 -87 50.5t-52 95.5 q0 36 4.5 73.5t14 93t12.5 73.5q8 54 8 79v815l-150 33z" />
<glyph unicode="&#xb6;" horiz-adv-x="1144" d="M74 926q0 174 124 278.5t339 104.5h495l10 -52l-176 -57v-1200h-96v1221h-174v-1221h-297l-12 49l215 62v454q-428 0 -428 361z" />
<glyph unicode="&#xb7;" horiz-adv-x="544" d="M152 614v27q0 20 51 69.5t71 49.5q32 0 75.5 -37.5t43.5 -67.5v-30q0 -20 -49.5 -66.5t-69.5 -46.5q-31 0 -76.5 36t-45.5 66z" />
<glyph unicode="&#xb8;" horiz-adv-x="569" d="M82 -412l27 66q79 -14 137 -14q59 0 95 27t36 81q0 26 -15 41q-8 8 -81 8h-80l-23 23l66 160h88l-37 -99q23 2 67 2q72 0 119 -31.5t47 -101.5q0 -49 -26 -87t-68 -58.5t-87 -30.5t-91 -10q-92 0 -174 24z" />
<glyph unicode="&#xb9;" horiz-adv-x="581" d="M94 1194q35 8 94 29t100 38l42 17l28 -25q-2 -46 -2 -73v-445l121 -43l-8 -39l-150 -2h-204l-9 41l138 43v373q0 29 -13 37t-45 8h-82z" />
<glyph unicode="&#xba;" horiz-adv-x="768" d="M31 981q0 150 101 252t261 102q170 0 259 -81t89 -240q0 -151 -101 -253t-261 -102q-168 0 -258 82.5t-90 239.5zM154 1016q0 -56 11 -103t35.5 -88t70 -64.5t108.5 -23.5q123 0 181 68.5t58 187.5q0 125 -51 190.5t-180 65.5q-45 0 -100 -8.5t-76 -26.5 q-27 -23 -42 -86.5t-15 -111.5z" />
<glyph unicode="&#xbb;" horiz-adv-x="890" d="M80 881q6 15 26.5 40t32.5 33l381 -338l-14 -43q-80 -76 -217.5 -203.5t-145.5 -127.5q-14 0 -35 24.5t-24 40.5q6 6 45 42t73.5 68.5t74 72t63.5 69t25 41.5zM418 881q6 15 27 40.5t34 32.5l379 -338l-14 -43q-42 -42 -198.5 -186.5t-164.5 -144.5q-14 0 -35 24.5 t-24 40.5q3 3 21.5 20t33 30t38.5 35.5t43 40.5t42.5 41t40.5 41t32 35.5t23 30t9 19.5z" />
<glyph unicode="&#xbc;" horiz-adv-x="1337" d="M94 1194q35 8 94 29t100 38l42 17l28 -25q-2 -46 -2 -73v-445l121 -43l-8 -39h-174q-24 0 -89 -1t-91 -1l-9 41l138 43v373q0 29 -13 37t-45 8h-82zM291 -29l594 1471h100l-594 -1471h-100zM680 166l371 485l67 -26v-404q0 -5 0.5 -8.5t2 -6.5l2.5 -5t4 -3t4 -1.5t5.5 -1 t6 -0.5h7h7.5h100l-12 -66h-80q-28 0 -37.5 -14t-9.5 -45v-70l-114 -29v123q0 15 -5 22.5t-12 9t-22 1.5h-271zM825 219q0 -14 15 -14q20 -10 149 -10l15 12v252h-5q-36 -44 -105 -137t-69 -103z" />
<glyph unicode="&#xbd;" horiz-adv-x="1337" d="M94 1194q35 8 94 29t100 38l42 17l28 -25q-2 -46 -2 -73v-445l121 -43l-8 -39l-174 -2h-180l-9 41l138 43v373q0 29 -13 37t-45 8h-82zM291 -29l594 1471h100l-594 -1471h-100zM690 27q170 146 242 228q92 104 92 161q0 67 -27 95t-94 28q-43 0 -84 -9l-16 -120l-17 -15 q-4 2 -10 4.5t-22.5 12t-29 20t-22.5 26t-10 31.5q0 25 98.5 81.5t129.5 56.5q46 0 84.5 -9t71 -28.5t51 -55t18.5 -83.5q0 -30 -7.5 -58.5t-17.5 -51.5t-29 -48.5t-34.5 -42.5t-42.5 -41t-43 -37t-45.5 -36.5t-42.5 -33.5l4 -18q71 -8 160 -8q19 0 36 6t33.5 23t24 25.5 t25.5 35t20 29.5l37 -17l-39 -162l-21 -16l-207 -2q-46 0 -135.5 -2t-122.5 -2z" />
<glyph unicode="&#xbe;" horiz-adv-x="1337" d="M84 662l12 24h207q47 22 71.5 51.5t24.5 75.5q0 49 -35 72.5t-85 23.5q-55 0 -107 -6l-18 43q7 3 38 16.5t47.5 21.5t44.5 24t42.5 30.5t26.5 35t12 42.5q0 41 -28.5 60.5t-72.5 19.5q-56 0 -147 -53l-23 43q147 92 193 92q51 0 93 -10.5t74.5 -43t32.5 -83.5 q0 -12 -2.5 -23.5t-5.5 -21t-10 -19t-11.5 -15.5t-15 -15t-15 -12.5t-18 -11.5t-17.5 -10.5t-19 -10.5t-17 -9q1 0 12.5 -0.5t17.5 -1t20 -2.5t22.5 -5t22 -9.5t22 -14t18.5 -19.5t15.5 -26.5t9.5 -34.5t4 -44q0 -66 -60.5 -124.5t-141.5 -90t-152 -31.5q-18 0 -38.5 18 t-31.5 36zM291 -29l594 1471h100l-594 -1471h-100zM680 166l371 485l67 -26v-404q0 -5 0.5 -8.5t2 -6.5l2.5 -5t4 -3t4 -1.5t5.5 -1t6 -0.5h7h7.5h100l-12 -66h-80q-28 0 -37.5 -14t-9.5 -45v-70l-114 -29v123q0 15 -5 22.5t-12 9t-22 1.5h-271zM825 219q0 -14 15 -14 q20 -10 149 -10l15 12v252h-5q-36 -44 -105 -137t-69 -103z" />
<glyph unicode="&#xbf;" horiz-adv-x="798" d="M133 10q0 47 11.5 88t29.5 72t48 60t58 49t69.5 41t72.5 34.5t76 32.5q23 9 34 14l-38 166l73 21q5 -18 23 -77t28.5 -102t10.5 -65q0 -39 -43 -68q-24 -18 -68.5 -43t-79 -46t-69.5 -49.5t-54.5 -66.5t-19.5 -85q0 -64 38 -162t83 -143q4 -4 14 -6.5t29.5 -4t36 -2.5 t46.5 -1.5t47 -0.5h51.5h47.5l19 -39q-8 -13 -20.5 -33t-44.5 -53t-56 -33q-114 0 -262 125q-85 72 -138 172t-53 205zM389 809v33q0 20 49.5 66t69.5 46q31 0 77 -36.5t46 -65.5v-27q0 -20 -51.5 -69t-71.5 -49q-31 0 -75 36.5t-44 65.5z" />
<glyph unicode="&#xc0;" horiz-adv-x="1249" d="M-18 51l124 64l416 1138l168 82l428 -1218l150 -60l-13 -57h-231q-43 0 -91.5 -1t-108.5 -2.5t-93 -2.5l-12 57l174 66l12 28l-110 340h-220q-132 0 -198 -8l-25 -24l-98 -308l14 -28l150 -60l-12 -57h-195q-127 0 -219 -6zM373 1638v43q15 13 59.5 43.5t52.5 30.5 q12 0 94.5 -83.5t158.5 -167.5l77 -83l-65 -16zM397 582h273q21 0 71 4l17 18l-156 473l-20 6z" />
<glyph unicode="&#xc1;" horiz-adv-x="1249" d="M-18 51l124 64l416 1138l168 82l428 -1218l150 -60l-13 -57h-231q-43 0 -91.5 -1t-108.5 -2.5t-93 -2.5l-12 57l174 66l12 28l-110 340h-220q-132 0 -198 -8l-25 -24l-98 -308l14 -28l150 -60l-12 -57h-195q-127 0 -219 -6zM383 1423q318 334 340 334q16 0 102 -74v-43 l-379 -233zM397 582h273q21 0 71 4l17 18l-156 473l-20 6z" />
<glyph unicode="&#xc2;" horiz-adv-x="1249" d="M-18 51l124 64l416 1138l168 82l428 -1218l150 -60l-13 -57h-231q-43 0 -91.5 -1t-108.5 -2.5t-93 -2.5l-12 57l174 66l12 28l-110 340h-220q-132 0 -198 -8l-25 -24l-98 -308l14 -28l150 -60l-12 -57h-195q-127 0 -219 -6zM262 1425q287 334 313 334h60q7 0 37.5 -29.5 t73 -76.5t82 -91t76.5 -86.5t44 -50.5l-65 -16l-279 186l-276 -186zM397 582h273q21 0 71 4l17 18l-156 473l-20 6z" />
<glyph unicode="&#xc3;" horiz-adv-x="1249" d="M-18 51l124 64l416 1138l168 82l428 -1218l150 -60l-13 -57h-231q-43 0 -91.5 -1t-108.5 -2.5t-93 -2.5l-12 57l174 66l12 28l-110 340h-220q-132 0 -198 -8l-25 -24l-98 -308l14 -28l150 -60l-12 -57h-195q-127 0 -219 -6zM281 1540q33 30 49.5 44.5t51 41t65.5 39 t59 12.5q48 0 136.5 -33.5t135.5 -33.5q35 0 174 45l29 -49q-41 -38 -68.5 -61t-75 -50t-83.5 -27q-50 0 -139 36t-136 36q-37 0 -174 -47zM397 582h273q21 0 71 4l17 18l-156 473l-20 6z" />
<glyph unicode="&#xc4;" horiz-adv-x="1249" d="M-18 51l124 64l416 1138l168 82l428 -1218l150 -60l-13 -57h-231q-43 0 -91.5 -1t-108.5 -2.5t-93 -2.5l-12 57l174 66l12 28l-110 340h-220q-132 0 -198 -8l-25 -24l-98 -308l14 -28l150 -60l-12 -57h-195q-127 0 -219 -6zM305 1528v24q0 19 46 64t65 45q28 0 67 -33.5 t39 -60.5v-29q0 -17 -44.5 -59.5t-61.5 -42.5q-27 0 -69 33.5t-42 58.5zM397 582h273q21 0 71 4l17 18l-156 473l-20 6zM672 1528v24q0 19 45.5 64t64.5 45q29 0 68 -33.5t39 -60.5v-29q0 -17 -45 -59.5t-62 -42.5q-27 0 -68.5 33.5t-41.5 58.5z" />
<glyph unicode="&#xc5;" horiz-adv-x="1249" d="M-18 51l124 64l416 1138l99 47h-17q-89 0 -151 62.5t-62 150.5t62 149.5t151 61.5q88 0 149.5 -61.5t61.5 -149.5q0 -62 -33 -113.5t-88 -78.5l424 -1204l150 -60l-13 -57h-231q-43 0 -91.5 -1t-108.5 -2.5t-93 -2.5l-12 57l174 66l12 28l-110 340h-220q-132 0 -198 -8 l-25 -24l-98 -308l14 -28l150 -60l-12 -57h-195q-127 0 -219 -6zM397 582h273q21 0 71 4l17 18l-156 473l-20 6zM479 1513q0 -52 36 -88t87 -36q53 0 89 36t36 88q0 51 -36.5 87t-88.5 36q-51 0 -87 -36t-36 -87z" />
<glyph unicode="&#xc6;" horiz-adv-x="1654" d="M-18 51l577 1106l-2 23l-176 69l14 60l465 -2q88 0 295 3t279 3l57 -291l-64 -16q-57 114 -90 147q-54 57 -172 57q-66 0 -178 -15t-125 -28q-6 -6 -8 -15t-1 -16t4 -23.5l5 -27.5l53 -376l314 43l20 20l21 137h65q28 -217 70 -415l-62 -15q-39 87 -71.5 125.5 t-91.5 38.5q-16 0 -53.5 -4.5t-93 -13t-81.5 -11.5l-16 -20l51 -342q14 -93 70.5 -123.5t159.5 -30.5q44 0 141.5 16t114.5 33q4 4 24 49.5t37 88.5l18 43l64 -23v-305h-465q-257 0 -524 -6l-11 57l177 62l22 32l-57 449l-361 -49l-37 -29l-188 -373l10 -30l162 -56l-10 -57 h-180q-69 0 -160 -6zM424 647q157 19 301 39l20 23l-59 417l-20 7z" />
<glyph unicode="&#xc7;" horiz-adv-x="1257" d="M74 623q0 152 50 284t138.5 226t217 148t278.5 54q239 0 422 -80v-303l-60 -14q-79 198 -96 215q-21 20 -110.5 30.5t-149.5 10.5q-290 0 -391 -104q-107 -104 -107 -379q0 -98 14 -185t48 -168t85.5 -139t132.5 -92.5t183 -34.5q92 0 182 26.5t144 84.5q36 39 106 196 l60 -20l-50 -279q-195 -126 -442 -129l-33 -90q23 2 68 2q72 0 119 -31.5t47 -101.5q0 -49 -26 -87t-68.5 -58.5t-87.5 -30.5t-91 -10q-91 0 -174 24l27 66q79 -14 137 -14q59 0 95 27t36 81q0 27 -14 41q-8 8 -82 8h-80l-22 23l63 155q-279 19 -424 185t-145 463z" />
<glyph unicode="&#xc8;" horiz-adv-x="1191" d="M92 53l191 64v1083l-191 47l17 62l458 -2q65 0 457 8l33 -29v-266l-68 -16l-18 67q-19 72 -62.5 101.5t-138.5 29.5q-276 0 -297 -31q-14 -18 -14 -65v-361h317l60 173l63 -11q-6 -108 -6 -213q0 -1 6 -205l-65 -12l-21 64q-15 53 -45.5 79.5t-93.5 26.5q-45 0 -197 -4 l-18 -27v-354q0 -50 17.5 -82.5t51 -48t67.5 -20.5t83 -5q57 0 168 12.5t129 28.5q7 8 32 53.5t47 87.5l21 42l62 -23l-62 -307h-481q-367 0 -490 -6zM406 1638v43q15 13 59.5 43.5t52.5 30.5q12 0 94.5 -83.5t159.5 -167.5l76 -83l-66 -16z" />
<glyph unicode="&#xc9;" horiz-adv-x="1191" d="M92 53l191 64v1083l-191 47l17 62l458 -2q65 0 457 8l33 -29v-266l-68 -16l-18 67q-19 72 -62.5 101.5t-138.5 29.5q-276 0 -297 -31q-14 -18 -14 -65v-361h317l60 173l63 -11q-6 -108 -6 -213q0 -1 6 -205l-65 -12l-21 64q-15 53 -45.5 79.5t-93.5 26.5q-45 0 -197 -4 l-18 -27v-354q0 -50 17.5 -82.5t51 -48t67.5 -20.5t83 -5q57 0 168 12.5t129 28.5q7 8 32 53.5t47 87.5l21 42l62 -23l-62 -307h-481q-367 0 -490 -6zM444 1423q318 334 340 334q17 0 103 -74v-43l-379 -233z" />
<glyph unicode="&#xca;" horiz-adv-x="1191" d="M92 53l191 64v1083l-191 47l17 62l458 -2q65 0 457 8l33 -29v-266l-68 -16l-18 67q-19 72 -62.5 101.5t-138.5 29.5q-276 0 -297 -31q-14 -18 -14 -65v-361h317l60 173l63 -11q-6 -108 -6 -213q0 -1 6 -205l-65 -12l-21 64q-15 53 -45.5 79.5t-93.5 26.5q-45 0 -197 -4 l-18 -27v-354q0 -50 17.5 -82.5t51 -48t67.5 -20.5t83 -5q57 0 168 12.5t129 28.5q7 8 32 53.5t47 87.5l21 42l62 -23l-62 -307h-481q-367 0 -490 -6zM311 1425q27 31 63.5 73t95.5 108t102.5 109.5t52.5 43.5h59q7 0 37.5 -29.5t73 -76.5t82 -91t76.5 -86.5t44 -50.5 l-65 -16l-279 186l-276 -186z" />
<glyph unicode="&#xcb;" horiz-adv-x="1191" d="M92 53l191 64v1083l-191 47l17 62l458 -2q65 0 457 8l33 -29v-266l-68 -16l-18 67q-19 72 -62.5 101.5t-138.5 29.5q-276 0 -297 -31q-14 -18 -14 -65v-361h317l60 173l63 -11q-6 -108 -6 -213q0 -1 6 -205l-65 -12l-21 64q-15 53 -45.5 79.5t-93.5 26.5q-45 0 -197 -4 l-18 -27v-354q0 -50 17.5 -82.5t51 -48t67.5 -20.5t83 -5q57 0 168 12.5t129 28.5q7 8 32 53.5t47 87.5l21 42l62 -23l-62 -307h-481q-367 0 -490 -6zM360 1528v24q0 19 46 64t65 45q29 0 68 -33.5t39 -60.5v-29q0 -17 -45 -59.5t-62 -42.5q-27 0 -69 33.5t-42 58.5z M727 1528v24q0 19 46 64t65 45q28 0 67 -33.5t39 -60.5v-29q0 -17 -44.5 -59.5t-61.5 -42.5q-27 0 -69 33.5t-42 58.5z" />
<glyph unicode="&#xcc;" horiz-adv-x="743" d="M92 53l191 64v1081l-191 51l19 60h262q131 0 260 6l16 -60l-190 -57v-1079l192 -58l-12 -61h-256l-279 -6zM141 1642v44q14 12 59.5 42.5t53.5 30.5q12 0 94.5 -83.5t159.5 -167.5l76 -83l-66 -16z" />
<glyph unicode="&#xcd;" horiz-adv-x="743" d="M92 53l191 64v1081l-191 51l19 60h262q131 0 260 6l16 -60l-190 -57v-1079l192 -58l-12 -61h-256l-279 -6zM178 1421q318 334 340 334q17 0 103 -74v-43l-379 -233z" />
<glyph unicode="&#xce;" horiz-adv-x="743" d="M29 1425q25 29 63 72t96 108t101.5 108.5t52.5 43.5h57q8 0 38.5 -29.5t74 -76.5t82 -89.5t77 -86.5t44.5 -50l-66 -16l-278 184l-277 -184zM92 53l191 64v1081l-191 51l19 60h262q131 0 260 6l16 -60l-190 -57v-1079l192 -58l-12 -61h-256l-279 -6z" />
<glyph unicode="&#xcf;" horiz-adv-x="743" d="M88 1528v24q0 19 46 63t65 44q28 0 67 -33t39 -59v-29q0 -19 -43.5 -60.5t-62.5 -41.5q-27 0 -69 33.5t-42 58.5zM92 53l191 64v1081l-191 51l19 60h262q131 0 260 6l16 -60l-190 -57v-1079l192 -58l-12 -61h-256l-279 -6zM455 1528v24q0 19 45.5 63t64.5 44 q30 0 68.5 -33t38.5 -59v-29q0 -19 -44 -60.5t-63 -41.5q-27 0 -68.5 33.5t-41.5 58.5z" />
<glyph unicode="&#xd0;" horiz-adv-x="1486" d="M51 653v92h252v453l-192 57l16 54q88 1 311.5 5.5t345.5 4.5q317 0 482.5 -159.5t165.5 -477.5q0 -200 -82 -355t-233.5 -241t-350.5 -86q-108 0 -322.5 -4t-320.5 -4l-12 57l192 68v536h-252zM477 307q0 -114 45 -162q10 -10 22.5 -17t29.5 -11.5t30 -7t37.5 -3t38 -1 t44.5 0t46 0.5q116 0 206 42.5t145 118t82.5 173t27.5 213.5q0 117 -37.5 276.5t-99.5 221.5q-53 53 -273 53q-70 0 -176 -9.5t-135 -27.5q-21 -12 -27 -23.5t-6 -37.5v-361h389v-92h-389v-346z" />
<glyph unicode="&#xd1;" horiz-adv-x="1544" d="M84 53l188 64l13 1020q3 59 -56 75l-133 35l13 60q231 4 346 8l712 -961h11l-2 846l-191 47l12 60l220 2q132 0 258 6l14 -60l-191 -55l-14 -1216l-59 -13l-824 1110h-10l6 -962l191 -58l-13 -61h-221q-2 0 -260 -6zM459 1540q33 30 49.5 44.5t51 41t65.5 39t59 12.5 q48 0 136.5 -33.5t135.5 -33.5q35 0 174 45l29 -49q-41 -38 -68.5 -61t-75 -50t-83.5 -27q-50 0 -139 36t-136 36q-37 0 -174 -47z" />
<glyph unicode="&#xd2;" horiz-adv-x="1456" d="M74 616q0 196 80.5 359t234 261.5t350.5 98.5q317 0 480 -165t163 -482q0 -196 -80.5 -358.5t-234 -260.5t-350.5 -98q-315 0 -479 165t-164 480zM264 692q0 -93 13.5 -176t46.5 -162t83 -136t129 -91.5t179 -34.5q125 0 216.5 41.5t145 117t78.5 172.5t25 218 q0 106 -10 184t-38.5 150.5t-77 118t-128 72t-189.5 26.5q-92 0 -210.5 -21.5t-155.5 -58.5q-41 -41 -74 -171t-33 -249zM551 1638v43q15 12 60 43t53 31q12 0 94 -83.5t158 -167.5l77 -83l-65 -16z" />
<glyph unicode="&#xd3;" horiz-adv-x="1456" d="M74 616q0 196 80.5 359t234 261.5t350.5 98.5q317 0 480 -165t163 -482q0 -196 -80.5 -358.5t-234 -260.5t-350.5 -98q-315 0 -479 165t-164 480zM264 692q0 -93 13.5 -176t46.5 -162t83 -136t129 -91.5t179 -34.5q125 0 216.5 41.5t145 117t78.5 172.5t25 218 q0 106 -10 184t-38.5 150.5t-77 118t-128 72t-189.5 26.5q-92 0 -210.5 -21.5t-155.5 -58.5q-41 -41 -74 -171t-33 -249zM600 1423q318 334 340 334q16 0 102 -74v-43l-378 -233z" />
<glyph unicode="&#xd4;" horiz-adv-x="1456" d="M74 616q0 196 80.5 359t234 261.5t350.5 98.5q317 0 480 -165t163 -482q0 -196 -80.5 -358.5t-234 -260.5t-350.5 -98q-315 0 -479 165t-164 480zM264 692q0 -93 13.5 -176t46.5 -162t83 -136t129 -91.5t179 -34.5q125 0 216.5 41.5t145 117t78.5 172.5t25 218 q0 106 -10 184t-38.5 150.5t-77 118t-128 72t-189.5 26.5q-92 0 -210.5 -21.5t-155.5 -58.5q-41 -41 -74 -171t-33 -249zM432 1425q287 334 313 334h60q7 0 37.5 -29.5t73 -76.5t82 -91t76.5 -86.5t44 -50.5l-65 -16l-279 186l-276 -186z" />
<glyph unicode="&#xd5;" horiz-adv-x="1456" d="M74 616q0 196 80.5 359t234 261.5t350.5 98.5q317 0 480 -165t163 -482q0 -196 -80.5 -358.5t-234 -260.5t-350.5 -98q-315 0 -479 165t-164 480zM264 692q0 -93 13.5 -176t46.5 -162t83 -136t129 -91.5t179 -34.5q125 0 216.5 41.5t145 117t78.5 172.5t25 218 q0 106 -10 184t-38.5 150.5t-77 118t-128 72t-189.5 26.5q-92 0 -210.5 -21.5t-155.5 -58.5q-41 -41 -74 -171t-33 -249zM424 1540q33 30 49.5 44.5t51 41t65.5 39t59 12.5q48 0 137 -33.5t136 -33.5q35 0 174 45l28 -49q-41 -38 -68.5 -61t-75 -50t-83.5 -27q-49 0 -138 36 t-136 36q-37 0 -174 -47z" />
<glyph unicode="&#xd6;" horiz-adv-x="1456" d="M74 616q0 196 80.5 359t234 261.5t350.5 98.5q317 0 480 -165t163 -482q0 -196 -80.5 -358.5t-234 -260.5t-350.5 -98q-315 0 -479 165t-164 480zM264 692q0 -93 13.5 -176t46.5 -162t83 -136t129 -91.5t179 -34.5q125 0 216.5 41.5t145 117t78.5 172.5t25 218 q0 106 -10 184t-38.5 150.5t-77 118t-128 72t-189.5 26.5q-92 0 -210.5 -21.5t-155.5 -58.5q-41 -41 -74 -171t-33 -249zM477 1528v24q0 19 46 64t65 45q28 0 67 -33.5t39 -60.5v-29q0 -17 -44.5 -59.5t-61.5 -42.5q-27 0 -69 33.5t-42 58.5zM844 1528v24q0 19 45.5 64 t64.5 45q29 0 68 -33.5t39 -60.5v-29q0 -17 -45 -59.5t-62 -42.5q-27 0 -68.5 33.5t-41.5 58.5z" />
<glyph unicode="&#xd7;" horiz-adv-x="925" d="M2 127l391 389l-389 389l66 68l389 -389l389 389l67 -68l-389 -389l394 -389l-70 -70l-391 392l-393 -392z" />
<glyph unicode="&#xd8;" horiz-adv-x="1456" d="M74 616q0 196 80.5 359t234 261.5t350.5 98.5q81 0 164 -12l70 174h98l-78 -194q105 -31 182 -91.5t121.5 -143t65 -176.5t20.5 -204q0 -196 -80.5 -358.5t-234 -260.5t-350.5 -98q-137 0 -242 31l-72 -168h-100l84 201q-86 38 -148 100.5t-97.5 140t-51.5 161.5t-16 179 zM264 692q0 -358 182 -510l402 1002q-47 8 -111 8q-92 0 -210.5 -21.5t-155.5 -58.5q-41 -41 -74 -169.5t-33 -250.5zM526 133q71 -41 203 -41q93 0 168 27t127 75.5t87.5 117.5t52 151t16.5 178q0 71 -4 125.5t-18.5 120.5t-39 115t-70 92t-108.5 67z" />
<glyph unicode="&#xd9;" horiz-adv-x="1454" d="M37 1249l16 60h260q133 0 262 6l19 -60l-193 -57v-760q0 -181 78 -261.5t260 -80.5q111 0 185 24.5t118 77.5t62 127.5t18 184.5v590q0 61 -25 89t-75 40l-90 20l16 60h213q132 0 258 6l17 -60l-191 -61q-4 -488 -4 -721q0 -256 -125 -379t-383 -123q-87 0 -160 12.5 t-137.5 41.5t-109.5 74.5t-71 115.5t-26 160v823zM549 1638v43q15 12 60 43t53 31q12 0 94 -83.5t158 -167.5l77 -83l-65 -16z" />
<glyph unicode="&#xda;" horiz-adv-x="1454" d="M37 1249l16 60h260q133 0 262 6l19 -60l-193 -57v-760q0 -181 78 -261.5t260 -80.5q111 0 185 24.5t118 77.5t62 127.5t18 184.5v590q0 61 -25 89t-75 40l-90 20l16 60h213q132 0 258 6l17 -60l-191 -61q-4 -488 -4 -721q0 -256 -125 -379t-383 -123q-87 0 -160 12.5 t-137.5 41.5t-109.5 74.5t-71 115.5t-26 160v823zM614 1423q318 334 340 334q17 0 103 -74v-43l-379 -233z" />
<glyph unicode="&#xdb;" horiz-adv-x="1454" d="M37 1249l16 60h260q133 0 262 6l19 -60l-193 -57v-760q0 -181 78 -261.5t260 -80.5q111 0 185 24.5t118 77.5t62 127.5t18 184.5v590q0 61 -25 89t-75 40l-90 20l16 60h213q132 0 258 6l17 -60l-191 -61q-4 -488 -4 -721q0 -256 -125 -379t-383 -123q-87 0 -160 12.5 t-137.5 41.5t-109.5 74.5t-71 115.5t-26 160v823zM432 1425q287 334 313 334h60q7 0 37.5 -29.5t73 -76.5t82 -91t76.5 -86.5t44 -50.5l-65 -16l-279 186l-276 -186z" />
<glyph unicode="&#xdc;" horiz-adv-x="1454" d="M37 1249l16 60h260q133 0 262 6l19 -60l-193 -57v-760q0 -181 78 -261.5t260 -80.5q111 0 185 24.5t118 77.5t62 127.5t18 184.5v590q0 61 -25 89t-75 40l-90 20l16 60h213q132 0 258 6l17 -60l-191 -61q-4 -488 -4 -721q0 -256 -125 -379t-383 -123q-87 0 -160 12.5 t-137.5 41.5t-109.5 74.5t-71 115.5t-26 160v823zM481 1528v24q0 19 46 64t65 45q28 0 67 -33.5t39 -60.5v-29q0 -17 -44.5 -59.5t-61.5 -42.5q-27 0 -69 33.5t-42 58.5zM848 1528v24q0 19 45.5 64t64.5 45q29 0 68 -33.5t39 -60.5v-29q0 -17 -45 -59.5t-62 -42.5 q-27 0 -68.5 33.5t-41.5 58.5z" />
<glyph unicode="&#xdd;" horiz-adv-x="1173" d="M-18 1247l12 60l219 2q73 0 262 6l12 -60l-143 -65l-10 -29l272 -465l25 -8q276 457 276 488q0 21 -7.5 31t-31.5 16l-98 26l14 60h203q131 0 193 6l12 -60l-115 -61q-16 -8 -115 -169t-190 -317l-92 -157v-428l209 -62l-10 -61h-287q-93 0 -281 -8l-12 59l209 70v366 q0 43 -19 74l-389 637zM444 1423q318 334 340 334q17 0 103 -74v-43l-379 -233z" />
<glyph unicode="&#xde;" horiz-adv-x="1132" d="M92 51l191 66v1077l-191 57l12 56l324 6l27 -25v-168q18 1 96 4.5t117 3.5q434 0 434 -366q0 -74 -23 -133.5t-59 -99t-91 -69t-109 -45.5t-123 -25.5t-123 -12t-119 -2.5v-256l190 -62l-10 -57h-275q-127 0 -256 -6zM455 471q29 -2 102 -2q155 0 253.5 75.5t98.5 225.5 q0 64 -18.5 127.5t-44.5 89.5q-31 31 -234 31q-83 0 -120 -38t-37 -120v-389z" />
<glyph unicode="&#xdf;" horiz-adv-x="1736" d="M129 248l64 26q61 -147 79 -165q31 -31 80 -31q44 0 83.5 7.5t77.5 24t60.5 49.5t22.5 79q0 31 -13 56t-44 47.5t-55.5 36t-75.5 38.5q-50 26 -74.5 40t-66 43t-62 54t-37 63.5t-16.5 81.5q0 73 29 128.5t79 88t110 48.5t128 16q107 0 213 -29v-243l-64 -15l-74 172 q-46 4 -65 4q-125 0 -178 -51q-31 -31 -31 -82q0 -29 13.5 -54t43.5 -47.5t55.5 -37t71.5 -37.5q39 -19 56 -28t52.5 -29.5t53 -34.5t43 -38t37.5 -47t21.5 -53.5t9.5 -64.5q0 -97 -52.5 -165.5t-130.5 -99t-170 -30.5q-124 0 -239 31zM997 248l64 26q62 -147 80 -165 q31 -31 80 -31q44 0 83.5 7.5t77 24t60 49.5t22.5 79q0 31 -13 56t-44 47.5t-55.5 36t-75.5 38.5q-50 26 -74.5 40t-66 43t-62 54t-37 63.5t-16.5 81.5q0 73 29 128.5t79 88t110 48.5t128 16q107 0 213 -29v-243l-63 -15l-74 172q-46 4 -66 4q-125 0 -178 -51 q-31 -31 -31 -82q0 -29 13.5 -54t44 -47.5t55.5 -37t72 -37.5q45 -22 65.5 -33t60 -34.5t59.5 -43.5t43.5 -48.5t33.5 -62.5t10 -73q0 -73 -30 -131t-80.5 -93t-112 -53t-129.5 -18q-125 0 -240 31z" />
<glyph unicode="&#xe0;" horiz-adv-x="991" d="M-18 51l120 55l316 844l129 29l330 -868l133 -56l-11 -55h-194q-4 0 -238 -6l-12 57l137 51l15 15l-82 233h-50q-126 0 -264 -6l-16 -12l-72 -211l10 -15l109 -49l-14 -57h-160q-23 0 -176 -6zM233 1327v43q15 12 60 43t53 31q12 0 94.5 -83.5t159.5 -166.5l76 -84 l-66 -16zM336 438h217l31 2l6 11l-117 331h-12z" />
<glyph unicode="&#xe1;" horiz-adv-x="991" d="M-18 51l120 55l316 844l129 29l330 -868l133 -56l-11 -55h-194q-4 0 -238 -6l-12 57l137 51l15 15l-82 233h-50q-126 0 -264 -6l-16 -12l-72 -211l10 -15l109 -49l-14 -57h-160q-23 0 -176 -6zM326 1110q318 334 340 334q16 0 102 -74v-43l-379 -233zM336 438h217l31 2 l6 11l-117 331h-12z" />
<glyph unicode="&#xe2;" horiz-adv-x="991" d="M-18 51l120 55l316 844l129 29l330 -868l133 -56l-11 -55h-194q-4 0 -238 -6l-12 57l137 51l15 15l-82 233h-50q-126 0 -264 -6l-16 -12l-72 -211l10 -15l109 -49l-14 -57h-160q-23 0 -176 -6zM158 1110q287 334 313 334h59q7 0 37.5 -29.5t73.5 -76.5t82 -91t76.5 -86.5 t44.5 -50.5l-66 -16l-278 186l-277 -186zM336 438h217l31 2l6 11l-117 331h-12z" />
<glyph unicode="&#xe3;" horiz-adv-x="991" d="M-18 51l120 55l316 844l129 29l330 -868l133 -56l-11 -55h-194q-4 0 -238 -6l-12 57l137 51l15 15l-82 233h-50q-126 0 -264 -6l-16 -12l-72 -211l10 -15l109 -49l-14 -57h-160q-23 0 -176 -6zM170 1225q33 30 49.5 44.5t51 41t65.5 39t59 12.5q48 0 137 -34t136 -34 q35 0 174 45l28 -49q-40 -37 -68 -60.5t-75.5 -50t-83.5 -26.5q-49 0 -138 36t-136 36q-37 0 -174 -47zM336 438h217l31 2l6 11l-117 331h-12z" />
<glyph unicode="&#xe4;" horiz-adv-x="991" d="M-18 51l120 55l316 844l129 29l330 -868l133 -56l-11 -55h-194q-4 0 -238 -6l-12 57l137 51l15 15l-82 233h-50q-126 0 -264 -6l-16 -12l-72 -211l10 -15l109 -49l-14 -57h-160q-23 0 -176 -6zM205 1219v24q0 19 45.5 64t64.5 45q28 0 67.5 -34t39.5 -61v-28 q0 -17 -45 -60t-62 -43q-27 0 -68.5 34t-41.5 59zM336 438h217l31 2l6 11l-117 331h-12zM571 1219v24q0 19 46 64t65 45q28 0 67 -34t39 -61v-28q0 -17 -44.5 -60t-61.5 -43q-27 0 -69 34t-42 59z" />
<glyph unicode="&#xe5;" horiz-adv-x="991" d="M-18 51l120 55l316 844l129 29l330 -868l133 -56l-11 -55h-194q-4 0 -238 -6l-12 57l137 51l15 15l-82 233h-50q-126 0 -264 -6l-16 -12l-72 -211l10 -15l109 -49l-14 -57h-160q-23 0 -176 -6zM281 1241q0 88 62 149.5t151 61.5q88 0 149.5 -61.5t61.5 -149.5 t-61.5 -150.5t-149.5 -62.5q-89 0 -151 62.5t-62 150.5zM336 438h217l31 2l6 11l-117 331h-12zM369 1241q0 -52 36 -88.5t87 -36.5q52 0 88 36t36 89q0 51 -36 87t-88 36q-51 0 -87 -36t-36 -87z" />
<glyph unicode="&#xe6;" horiz-adv-x="1261" d="M-18 53l424 789l-9 22l-118 29l18 61h354q52 0 208.5 2t203.5 2l43 -237l-68 -16l-37 75q-24 48 -52 62t-89 14q-59 0 -130 -9t-81 -20q-2 -1 -2 -14l41 -281l180 21l17 20l10 103h68q15 -135 51 -328l-62 -14l-37 84q-12 28 -27.5 37.5t-45.5 5.5q-78 -9 -123 -15 l-17 -24l33 -223q5 -34 21 -55.5t42 -31.5t49.5 -13t57.5 -3q35 0 118.5 11.5t94.5 23.5q37 110 43 133l62 -20v-244h-367q-48 0 -196.5 -3t-188.5 -3l-16 59l131 51l6 23l-41 297l-252 -33l-23 -18q-135 -250 -137 -258l8 -19l119 -39l-16 -57h-100q-18 0 -72.5 -3 t-81.5 -3zM332 489l200 23l7 12l-39 271h-11z" />
<glyph unicode="&#xe7;" horiz-adv-x="980" d="M74 451q0 232 143.5 380t372.5 148q193 0 323 -61v-244l-65 -17q-56 150 -68 162t-82 20.5t-108 8.5q-219 0 -283 -64q-69 -72 -69 -270q0 -428 325 -428q66 0 135 17.5t105 54.5q6 7 26 46.5t37 75.5l17 35l61 -22l-37 -223q-156 -101 -352 -101h-2l-33 -88q23 2 68 2 q72 0 119 -31.5t47 -101.5q0 -49 -26 -87t-68.5 -58.5t-87.5 -30.5t-91 -10q-91 0 -174 24l27 66q79 -14 137 -14q59 0 95 27t36 81q0 27 -14 41q-8 8 -82 8h-80l-23 23l64 155q-192 20 -292.5 140.5t-100.5 335.5z" />
<glyph unicode="&#xe8;" horiz-adv-x="1005" d="M92 53l170 62v725l-170 55l14 59h412q30 0 161 3.5t171 3.5l27 -25v-213l-68 -16l-18 61q-15 52 -45.5 71t-104.5 19q-201 0 -223 -20q-3 -3 -4 -10t-1 -14t0.5 -16.5t0.5 -11.5v-229h202l9 12l34 119l64 -12q-2 -55 -2 -166q0 -107 2 -160l-64 -14l-16 63q-14 68 -76 68 q-96 0 -145 -2l-8 -12v-260q0 -26 11.5 -45t27 -29t40 -15.5t42.5 -6.5t43 -1q41 0 125.5 9.5t97.5 21.5q4 4 21 38.5t32 66.5l14 32l62 -26l-41 -238h-314l-473 -4zM307 1327v43q15 12 60 43t53 31q12 0 94.5 -83.5t159.5 -166.5l76 -84l-66 -16z" />
<glyph unicode="&#xe9;" horiz-adv-x="1005" d="M92 53l170 62v725l-170 55l14 59h412q30 0 161 3.5t171 3.5l27 -25v-213l-68 -16l-18 61q-15 52 -45.5 71t-104.5 19q-201 0 -223 -20q-3 -3 -4 -10t-1 -14t0.5 -16.5t0.5 -11.5v-229h202l9 12l34 119l64 -12q-2 -55 -2 -166q0 -107 2 -160l-64 -14l-16 63q-14 68 -76 68 q-96 0 -145 -2l-8 -12v-260q0 -26 11.5 -45t27 -29t40 -15.5t42.5 -6.5t43 -1q41 0 125.5 9.5t97.5 21.5q4 4 21 38.5t32 66.5l14 32l62 -26l-41 -238h-314l-473 -4zM362 1110q318 334 340 334q17 0 103 -74v-43l-379 -233z" />
<glyph unicode="&#xea;" horiz-adv-x="1005" d="M92 53l170 62v725l-170 55l14 59h412q30 0 161 3.5t171 3.5l27 -25v-213l-68 -16l-18 61q-15 52 -45.5 71t-104.5 19q-201 0 -223 -20q-3 -3 -4 -10t-1 -14t0.5 -16.5t0.5 -11.5v-229h202l9 12l34 119l64 -12q-2 -55 -2 -166q0 -107 2 -160l-64 -14l-16 63q-14 68 -76 68 q-96 0 -145 -2l-8 -12v-260q0 -26 11.5 -45t27 -29t40 -15.5t42.5 -6.5t43 -1q41 0 125.5 9.5t97.5 21.5q4 4 21 38.5t32 66.5l14 32l62 -26l-41 -238h-314l-473 -4zM176 1110q287 334 313 334h60q7 0 37.5 -29.5t73 -76.5t82 -91t76.5 -86.5t44 -50.5l-65 -16l-279 186 l-276 -186z" />
<glyph unicode="&#xeb;" horiz-adv-x="1005" d="M92 53l170 62v725l-170 55l14 59h412q30 0 161 3.5t171 3.5l27 -25v-213l-68 -16l-18 61q-15 52 -45.5 71t-104.5 19q-201 0 -223 -20q-3 -3 -4 -10t-1 -14t0.5 -16.5t0.5 -11.5v-229h202l9 12l34 119l64 -12q-2 -55 -2 -166q0 -107 2 -160l-64 -14l-16 63q-14 68 -76 68 q-96 0 -145 -2l-8 -12v-260q0 -26 11.5 -45t27 -29t40 -15.5t42.5 -6.5t43 -1q41 0 125.5 9.5t97.5 21.5q4 4 21 38.5t32 66.5l14 32l62 -26l-41 -238h-314l-473 -4zM246 1219v24q0 19 45.5 64t64.5 45q28 0 67.5 -34t39.5 -61v-28q0 -17 -45 -60t-62 -43q-27 0 -68.5 34 t-41.5 59zM612 1219v24q0 19 46 64t65 45q28 0 67 -34t39 -61v-28q0 -17 -44.5 -60t-61.5 -43q-27 0 -69 34t-42 59z" />
<glyph unicode="&#xec;" horiz-adv-x="675" d="M88 1327v43q15 12 60 43t53 31q12 0 94.5 -83.5t158.5 -166.5l76 -84l-65 -16zM92 53l170 62v725l-170 55l8 59h222l253 4l7 -61l-168 -57v-723l170 -60l-9 -57h-221l-252 -6z" />
<glyph unicode="&#xed;" horiz-adv-x="677" d="M92 53l170 62v725l-170 55l8 59h222l253 4l7 -61l-168 -57v-723l170 -60l-9 -57h-221l-252 -6zM150 1110q318 334 339 334q17 0 103 -74v-43l-379 -233z" />
<glyph unicode="&#xee;" horiz-adv-x="677" d="M-4 1110q7 8 44.5 50.5t76.5 86.5t82 91t73.5 76.5t38.5 29.5h58q8 0 38.5 -29.5t73.5 -76.5t82 -91t76.5 -86.5t44.5 -50.5l-66 -16l-278 186l-279 -186zM92 53l170 62v725l-170 55l8 59h222l253 4l7 -61l-168 -57v-723l170 -60l-9 -57h-221l-252 -6z" />
<glyph unicode="&#xef;" horiz-adv-x="677" d="M47 1219v24q0 19 46 63t65 44q28 0 67 -33.5t39 -59.5v-28q0 -18 -44 -60.5t-62 -42.5q-28 0 -69.5 33t-41.5 60zM92 53l170 62v725l-170 55l8 59h222l253 4l7 -61l-168 -57v-723l170 -60l-9 -57h-221l-252 -6zM414 1219v24q0 19 45.5 63t64.5 44q28 0 67.5 -33.5 t39.5 -59.5v-28q0 -18 -44.5 -60.5t-62.5 -42.5q-28 0 -69 33t-41 60z" />
<glyph unicode="&#xf0;" horiz-adv-x="1198" d="M111 463v96h163v293l-149 47l16 55q86 0 256.5 6.5t255.5 6.5q236 0 363 -114.5t127 -352.5q0 -228 -139 -364t-363 -136q-336 0 -504 -6l-12 57l149 60v352h-163zM426 231q0 -76 29 -108q14 -13 38.5 -18.5t40.5 -6t66 -0.5q186 0 279.5 90.5t93.5 282.5q0 94 -24 203.5 t-75 156.5q-35 31 -200 31q-54 0 -128 -6t-104 -18q-16 -8 -16 -35v-244h279v-98h-279v-230z" />
<glyph unicode="&#xf1;" horiz-adv-x="1232" d="M84 55l164 60l8 673q0 52 -66 76l-98 33l12 57l291 7l531 -685q-3 51 -8 187l-7 383l-149 51l14 57h178l209 7l15 -58l-150 -57l-10 -854l-62 -21l-604 797q2 -40 4 -118.5t2 -86.5l7 -446l147 -58l-10 -59h-183l-227 -4zM299 1225q33 30 49.5 44.5t51 41t65.5 39 t59 12.5q48 0 137 -34t136 -34q35 0 174 45l28 -49q-40 -37 -68 -60.5t-75.5 -50t-83.5 -26.5q-50 0 -139 36t-135 36q-37 0 -174 -47z" />
<glyph unicode="&#xf2;" horiz-adv-x="1134" d="M74 449q0 148 62.5 268.5t178 191t260.5 70.5q236 0 361 -121t125 -358q0 -227 -140.5 -379t-361.5 -152q-233 0 -359 122t-126 358zM236 502q0 -84 17 -155.5t53 -131.5t100 -94.5t151 -34.5q171 0 255.5 101.5t84.5 277.5q0 189 -77.5 286t-252.5 97q-62 0 -148 -13.5 t-110 -37.5q-28 -27 -50.5 -121t-22.5 -174zM330 1327v43q15 13 59.5 43.5t52.5 30.5q12 0 94.5 -83.5t159.5 -166.5l76 -84l-65 -16z" />
<glyph unicode="&#xf3;" horiz-adv-x="1134" d="M74 449q0 148 62.5 268.5t178 191t260.5 70.5q236 0 361 -121t125 -358q0 -227 -140.5 -379t-361.5 -152q-233 0 -359 122t-126 358zM236 502q0 -84 17 -155.5t53 -131.5t100 -94.5t151 -34.5q171 0 255.5 101.5t84.5 277.5q0 189 -77.5 286t-252.5 97q-62 0 -148 -13.5 t-110 -37.5q-28 -27 -50.5 -121t-22.5 -174zM383 1110q318 334 340 334q16 0 102 -74v-43l-379 -233z" />
<glyph unicode="&#xf4;" horiz-adv-x="1134" d="M74 449q0 148 62.5 268.5t178 191t260.5 70.5q236 0 361 -121t125 -358q0 -227 -140.5 -379t-361.5 -152q-233 0 -359 122t-126 358zM236 502q0 -84 17 -155.5t53 -131.5t100 -94.5t151 -34.5q171 0 255.5 101.5t84.5 277.5q0 189 -77.5 286t-252.5 97q-62 0 -148 -13.5 t-110 -37.5q-28 -27 -50.5 -121t-22.5 -174zM236 1110q287 334 313 334h59q7 0 37.5 -29.5t73.5 -76.5t82 -91t76.5 -86.5t44.5 -50.5l-66 -16l-278 186l-277 -186z" />
<glyph unicode="&#xf5;" horiz-adv-x="1134" d="M74 449q0 148 62.5 268.5t178 191t260.5 70.5q236 0 361 -121t125 -358q0 -227 -140.5 -379t-361.5 -152q-233 0 -359 122t-126 358zM236 502q0 -84 17 -155.5t53 -131.5t100 -94.5t151 -34.5q171 0 255.5 101.5t84.5 277.5q0 189 -77.5 286t-252.5 97q-62 0 -148 -13.5 t-110 -37.5q-28 -27 -50.5 -121t-22.5 -174zM240 1225q33 30 49.5 44.5t51 41t65.5 39t59 12.5q48 0 136.5 -34t135.5 -34q35 0 174 45l29 -49q-40 -37 -68 -60.5t-75.5 -50t-83.5 -26.5q-50 0 -139.5 36t-135.5 36q-37 0 -174 -47z" />
<glyph unicode="&#xf6;" horiz-adv-x="1134" d="M74 449q0 148 62.5 268.5t178 191t260.5 70.5q236 0 361 -121t125 -358q0 -227 -140.5 -379t-361.5 -152q-233 0 -359 122t-126 358zM236 502q0 -84 17 -155.5t53 -131.5t100 -94.5t151 -34.5q171 0 255.5 101.5t84.5 277.5q0 189 -77.5 286t-252.5 97q-62 0 -148 -13.5 t-110 -37.5q-28 -27 -50.5 -121t-22.5 -174zM287 1219v24q0 19 45.5 64t64.5 45q28 0 67.5 -34t39.5 -61v-28q0 -17 -45 -60t-62 -43q-27 0 -68.5 34t-41.5 59zM653 1219v24q0 19 46 64t65 45q28 0 67 -34t39 -61v-28q0 -17 -44.5 -60t-61.5 -43q-27 0 -69 34t-42 59z" />
<glyph unicode="&#xf7;" horiz-adv-x="925" d="M57 475v88h815v-88h-815zM360 938q0 23 40.5 60.5t62.5 37.5q28 0 64 -29.5t36 -56.5v-24q0 -23 -38.5 -60t-61.5 -37q-39 0 -71 35t-32 74zM367 106q0 23 39.5 61t62.5 38q28 0 64 -28.5t36 -55.5v-27q0 -21 -39 -57.5t-61 -36.5q-39 0 -70.5 33.5t-31.5 72.5z" />
<glyph unicode="&#xf8;" horiz-adv-x="1134" d="M74 451q0 229 141.5 378.5t366.5 149.5q55 0 110 -6l49 123h103l-58 -148q275 -101 275 -446q0 -150 -62 -270.5t-177 -190.5t-263 -70q-85 0 -168 21l-67 -166h-103l82 199q-229 113 -229 426zM233 504q0 -230 125 -342l283 684q-23 2 -66 2q-68 0 -148.5 -11 t-109.5 -38q-38 -38 -61 -131.5t-23 -163.5zM440 109q61 -23 117 -23q169 0 254.5 103.5t85.5 277.5q0 280 -164 350z" />
<glyph unicode="&#xf9;" horiz-adv-x="1185" d="M47 897l16 57h226l209 4l8 -57l-139 -59v-529q0 -127 55 -180t180 -53q153 0 210.5 63t59.5 219l2 420q0 39 -15 58t-50 30l-80 27l10 57h176l232 4l10 -57l-170 -61v-496q-1 -196 -95 -284.5t-294 -88.5q-64 0 -117.5 7.5t-104 28t-85 53t-55.5 85t-21 121.5v576z M406 1327v43q15 13 59.5 43.5t52.5 30.5q12 0 94.5 -83.5t159.5 -166.5l76 -84l-66 -16z" />
<glyph unicode="&#xfa;" horiz-adv-x="1185" d="M47 897l16 57h226l209 4l8 -57l-139 -59v-529q0 -127 55 -180t180 -53q153 0 210.5 63t59.5 219l2 420q0 39 -15 58t-50 30l-80 27l10 57h176l232 4l10 -57l-170 -61v-496q-1 -196 -95 -284.5t-294 -88.5q-64 0 -117.5 7.5t-104 28t-85 53t-55.5 85t-21 121.5v576z M442 1110q318 334 340 334q17 0 103 -74v-43l-379 -233z" />
<glyph unicode="&#xfb;" horiz-adv-x="1185" d="M47 897l16 57h226l209 4l8 -57l-139 -59v-529q0 -127 55 -180t180 -53q153 0 210.5 63t59.5 219l2 420q0 39 -15 58t-50 30l-80 27l10 57h176l232 4l10 -57l-170 -61v-496q-1 -196 -95 -284.5t-294 -88.5q-64 0 -117.5 7.5t-104 28t-85 53t-55.5 85t-21 121.5v576z M270 1110q27 31 63.5 73t95.5 108t102.5 109.5t52.5 43.5h59q7 0 37.5 -29.5t73 -76.5t82 -91t76.5 -86.5t44 -50.5l-65 -16l-279 186l-276 -186z" />
<glyph unicode="&#xfc;" horiz-adv-x="1185" d="M47 897l16 57h226l209 4l8 -57l-139 -59v-529q0 -127 55 -180t180 -53q153 0 210.5 63t59.5 219l2 420q0 39 -15 58t-50 30l-80 27l10 57h176l232 4l10 -57l-170 -61v-496q-1 -196 -95 -284.5t-294 -88.5q-64 0 -117.5 7.5t-104 28t-85 53t-55.5 85t-21 121.5v576z M344 1219v24q0 19 46 64t65 45q28 0 67 -34t39 -61v-28q0 -17 -44.5 -60t-61.5 -43q-27 0 -69 34t-42 59zM711 1219v24q0 19 45.5 64t64.5 45q28 0 67.5 -34t39.5 -61v-28q0 -17 -45 -60t-62 -43q-27 0 -68.5 34t-41.5 59z" />
<glyph unicode="&#xfd;" horiz-adv-x="993" d="M18 897l15 57h174l205 4l14 -57l-115 -41l-6 -12l205 -316l18 -6l191 310q10 17 2 27t-35 18q-39 10 -59 16l14 57h152l170 4l12 -57q-106 -38 -123 -61l-277 -430v-297l164 -56l-12 -57h-211l-242 -6l-12 59l164 58v258q0 27 -12 45l-293 446zM274 1110q318 334 340 334 q17 0 103 -74v-43l-379 -233z" />
<glyph unicode="&#xfe;" horiz-adv-x="917" d="M92 53l150 58v737l-150 53l12 53l261 4l28 -26v-115q53 2 164 2q59 0 106 -7t90.5 -25t73 -46.5t47 -75t17.5 -108.5q0 -57 -18.5 -102.5t-46.5 -75.5t-71.5 -51.5t-85 -33t-95.5 -18.5t-93 -8.5t-88 -1.5v-153l150 -56l-13 -57h-217q-69 0 -209 -4zM393 360q50 -4 76 -4 q51 0 94 9t81 29t59.5 58t21.5 91q0 118 -43 164q-11 10 -64 16t-108 6q-66 0 -91.5 -23t-25.5 -79v-267z" />
<glyph unicode="&#xff;" horiz-adv-x="993" d="M18 897l15 57h174l205 4l14 -57l-115 -41l-6 -12l205 -316l18 -6l191 310q10 17 2 27t-35 18q-39 10 -59 16l14 57h152l170 4l12 -57q-106 -38 -123 -61l-277 -430v-297l164 -56l-12 -57h-211l-242 -6l-12 59l164 58v258q0 27 -12 45l-293 446zM215 1219v24q0 19 46 64 t65 45q28 0 67 -34t39 -61v-28q0 -17 -44.5 -60t-61.5 -43q-27 0 -69 34t-42 59zM582 1219v24q0 19 45.5 64t64.5 45q28 0 67.5 -34t39.5 -61v-28q0 -17 -45 -60t-62 -43q-27 0 -68.5 34t-41.5 59z" />
<glyph unicode="&#x152;" horiz-adv-x="1945" d="M55 614q0 155 42 286t120.5 228t200 152t272.5 55q130 0 248 -28l535 2q36 0 165 2t164 2l25 -25v-268l-66 -16l-26 88q-17 60 -61.5 85t-133.5 25q-81 0 -180.5 -9t-114.5 -24q-16 -16 -16 -65v-359h317l62 173l61 -11q-4 -144 -4 -211q0 -71 4 -207l-63 -12l-23 70 q-17 50 -47 75t-90 25q-123 0 -197 -4l-20 -25v-356q0 -50 18 -82.5t52 -48t68.5 -20.5t82.5 -5q59 0 167.5 11t127.5 28q8 8 33 53.5t46 87.5l21 42l62 -23l-62 -305h-393q-31 0 -193 -3t-204 -3v143h-8q-62 -80 -180 -123t-232 -43q-151 0 -263 46t-181 132t-102.5 202 t-33.5 263zM248 700q0 -64 3.5 -120t14.5 -120t29 -115t48.5 -99.5t71 -81.5t99.5 -52.5t131 -19.5q77 0 139 19t104.5 50t74 79t49.5 97t29 113t14.5 118.5t3.5 121.5q0 189 -17 310.5t-38 140.5q-19 21 -122.5 36t-205.5 15q-127 0 -211 -30t-131.5 -95t-66.5 -152 t-19 -215z" />
<glyph unicode="&#x153;" horiz-adv-x="1474" d="M55 451q0 110 32 206t91 167.5t148 113t196 41.5q112 0 203 -27l262 2l367 4l26 -22v-215l-69 -12l-15 57q-14 51 -45 70.5t-102 19.5q-213 0 -225 -18q-9 -14 -9 -50v-231h201l14 12l35 119l64 -12q-6 -82 -6 -166q0 -80 6 -160l-64 -14l-14 53q-9 38 -26.5 58t-55.5 20 q-51 0 -145 -4l-6 -10v-271q0 -38 28.5 -61t67.5 -23q270 0 295 25q4 5 21 40t32 67l14 32l60 -24l-39 -238h-312q-37 0 -165.5 -4t-155.5 -4v74q-46 -50 -121 -73.5t-154 -23.5q-219 0 -326.5 127t-107.5 355zM217 514q0 -430 289 -430q69 0 119.5 22.5t78.5 56.5 t44.5 88.5t21 103.5t4.5 116q0 79 -9 204t-28 144q-16 14 -89.5 24.5t-127.5 10.5q-92 0 -151 -19t-92.5 -62.5t-46.5 -104t-13 -154.5z" />
<glyph unicode="&#x178;" horiz-adv-x="1173" d="M-18 1247l12 60l219 2q73 0 262 6l12 -60l-143 -65l-10 -29l272 -465l25 -8q276 457 276 488q0 21 -7.5 31t-31.5 16l-98 26l14 60h203q131 0 193 6l12 -60l-115 -61q-16 -8 -115 -169t-190 -317l-92 -157v-428l209 -62l-10 -61h-287q-93 0 -281 -8l-12 59l209 70v366 q0 43 -19 74l-389 637zM305 1528v24q0 19 46 64t65 45q28 0 67 -33.5t39 -60.5v-29q0 -17 -44.5 -59.5t-61.5 -42.5q-27 0 -69 33.5t-42 58.5zM672 1528v24q0 19 45.5 64t64.5 45q29 0 68 -33.5t39 -60.5v-29q0 -17 -45 -59.5t-62 -42.5q-27 0 -68.5 33.5t-41.5 58.5z" />
<glyph unicode="&#x2c6;" horiz-adv-x="569" d="M-57 1110q287 334 313 334h59q7 0 37.5 -29.5t73.5 -76.5t82 -91t76.5 -86.5t44.5 -50.5l-66 -16l-278 186l-277 -186z" />
<glyph unicode="&#x2dc;" horiz-adv-x="569" d="M-63 1225q33 30 49.5 44.5t51 41t65.5 39t59 12.5q48 0 136.5 -34t135.5 -34q35 0 174 45l29 -49q-40 -37 -68 -60.5t-75.5 -50t-83.5 -26.5q-50 0 -139 36t-136 36q-37 0 -174 -47z" />
<glyph unicode="&#x2000;" horiz-adv-x="879" />
<glyph unicode="&#x2001;" horiz-adv-x="1759" />
<glyph unicode="&#x2002;" horiz-adv-x="879" />
<glyph unicode="&#x2003;" horiz-adv-x="1759" />
<glyph unicode="&#x2004;" horiz-adv-x="586" />
<glyph unicode="&#x2005;" horiz-adv-x="439" />
<glyph unicode="&#x2006;" horiz-adv-x="293" />
<glyph unicode="&#x2007;" horiz-adv-x="293" />
<glyph unicode="&#x2008;" horiz-adv-x="219" />
<glyph unicode="&#x2009;" horiz-adv-x="351" />
<glyph unicode="&#x200a;" horiz-adv-x="97" />
<glyph unicode="&#x2010;" horiz-adv-x="569" d="M59 471v96h473v-96h-473z" />
<glyph unicode="&#x2011;" horiz-adv-x="569" d="M59 471v96h473v-96h-473z" />
<glyph unicode="&#x2012;" horiz-adv-x="569" d="M59 471v96h473v-96h-473z" />
<glyph unicode="&#x2013;" horiz-adv-x="925" d="M0 477v86h926v-86h-926z" />
<glyph unicode="&#x2014;" horiz-adv-x="1611" d="M0 475v88h1612v-88h-1612z" />
<glyph unicode="&#x2018;" horiz-adv-x="436" d="M29 862q0 58 97 191t171 207l59 -29l-157 -301l108 -66v-51q-21 -24 -64.5 -66t-58.5 -42q-40 0 -97.5 58.5t-57.5 98.5z" />
<glyph unicode="&#x2019;" horiz-adv-x="436" d="M80 428l158 301l-111 66v51q1 1 15.5 16t28 28.5t30.5 29t30.5 25t20.5 9.5q38 0 97 -59t59 -98q0 -58 -96.5 -189t-172.5 -209z" />
<glyph unicode="&#x201a;" horiz-adv-x="436" d="M80 -301l158 301l-111 68v49q1 1 15.5 16t28 28.5t30.5 29t30.5 25t20.5 9.5q38 0 97 -58.5t59 -98.5t-55.5 -126.5t-112.5 -155.5t-101 -116z" />
<glyph unicode="&#x201c;" horiz-adv-x="819" d="M29 862q0 58 97 191t171 207l59 -29l-157 -301l108 -66v-51q-21 -24 -64.5 -66t-58.5 -42q-40 0 -97.5 58.5t-57.5 98.5zM410 862q0 58 96.5 189t171.5 209l59 -29l-157 -301l110 -66v-51q-1 -1 -15.5 -16t-28 -28.5t-30.5 -29t-30.5 -25t-20.5 -9.5q-38 0 -96.5 58.5 t-58.5 98.5z" />
<glyph unicode="&#x201d;" horiz-adv-x="819" d="M80 428l158 301l-111 66v51q1 1 15.5 16t28 28.5t30.5 29t30.5 25t20.5 9.5q38 0 97 -59t59 -98q0 -58 -96.5 -189t-172.5 -209zM461 428l157 301l-108 66v51q21 25 65 66.5t60 41.5q39 0 97.5 -59t58.5 -98q0 -58 -98 -190.5t-173 -207.5z" />
<glyph unicode="&#x201e;" horiz-adv-x="817" d="M80 -301l158 301l-111 68v49q1 1 15.5 16t28 28.5t30.5 29t30.5 25t20.5 9.5q38 0 97 -58.5t59 -98.5t-55.5 -126.5t-112.5 -155.5t-101 -116zM461 -301l157 301l-108 68v49q21 25 65 66.5t60 41.5q39 0 97.5 -58.5t58.5 -98.5q0 -58 -96.5 -188t-174.5 -210z" />
<glyph unicode="&#x2022;" horiz-adv-x="999" d="M219 641q0 145 72 229t215 84q274 0 274 -313q0 -145 -71.5 -228t-214.5 -83q-275 0 -275 311z" />
<glyph unicode="&#x2026;" horiz-adv-x="1294" d="M133 72v28q0 20 51.5 69.5t71.5 49.5q32 0 75.5 -37t43.5 -67v-31q0 -20 -49.5 -66.5t-69.5 -46.5q-31 0 -77 36.5t-46 64.5zM559 72v28q0 20 51.5 69.5t71.5 49.5q32 0 75.5 -37t43.5 -67v-31q0 -20 -49.5 -66.5t-69.5 -46.5q-31 0 -77 36.5t-46 64.5zM985 72v28 q0 20 51.5 69.5t71.5 49.5q33 0 76 -37t43 -67v-31q0 -20 -49.5 -66.5t-69.5 -46.5q-31 0 -77 36.5t-46 64.5z" />
<glyph unicode="&#x202f;" horiz-adv-x="351" />
<glyph unicode="&#x2039;" horiz-adv-x="587" d="M70 580l14 43q349 331 360 331q16 0 37.5 -24.5t24.5 -40.5q-3 -3 -21.5 -20t-33 -30t-38.5 -35.5t-43 -40.5t-42.5 -41t-40.5 -41t-32 -35.5t-23 -30t-9 -19.5l285 -281q-4 -15 -24.5 -40t-34.5 -33z" />
<glyph unicode="&#x203a;" horiz-adv-x="587" d="M76 879q6 15 27 40.5t34 32.5l379 -338l-14 -43q-9 -8 -104 -97t-174.5 -161.5t-84.5 -72.5q-14 0 -35 25t-24 40q276 253 282 293z" />
<glyph unicode="&#x205f;" horiz-adv-x="439" />
<glyph unicode="&#x20ac;" d="M0 489v91h88q4 76 8 110l-96 -2v88h111q49 252 182 383q121 121 332 121q143 0 262 -35v-282l-62 -13l-90 187q-51 10 -119 10q-188 0 -254 -66q-66 -63 -92 -303h492v-90h-500q-2 -25 -2 -76v-32h502v-91h-506q0 -211 100 -311q73 -76 187 -76q98 0 144.5 29t94.5 117 l39 74l72 -21l-55 -233q-69 -53 -139.5 -75t-159.5 -22q-198 0 -312 117q-125 123 -139 401h-88z" />
<glyph unicode="&#x2122;" horiz-adv-x="1486" d="M55 752q10 141 11 172q323 4 485 4l20 -17q-3 -21 -5 -45t-4 -53t-3 -45l-47 -10q-1 8 -3 23t-3 25t-5 22.5t-9.5 20t-16.5 12.5t-26 5h-87v-479l103 -35l-6 -37q-193 -2 -289 -4l-8 37l102 37v471l-10 8q-47 -1 -67 -3t-38.5 -15.5t-25.5 -35t-17 -67.5zM512 346l94 37 l51 541l121 2l154 -467l170 463q145 6 217 6l14 -39l-100 -29l27 -477l98 -33l-6 -35q-179 -2 -269 -4l-8 35l88 39l-22 455l-205 -543l-41 -8l-178 538l-33 -442l86 -35l-8 -35q-164 -2 -246 -4z" />
<glyph unicode="&#x25fc;" horiz-adv-x="962" d="M0 0v963h963v-963h-963z" />
<glyph unicode="&#xfb01;" horiz-adv-x="1576" d="M92 53l170 62v725l-170 55l14 59h392l342 2l24 -24v-209l-67 -16l-21 63q-17 54 -47.5 71t-107.5 17q-187 0 -203 -18q-4 -4 -5 -12.5t0 -22.5l1 -14v-234h186l12 12l35 119l64 -12q-4 -110 -4 -166q0 -54 4 -160l-64 -14l-18 70q-9 33 -27 47t-51 14l-129 -2l-8 -12 v-336l184 -60l-10 -57h-254l-232 -4zM993 53l170 62v725l-170 55l8 59h222l254 4l6 -61l-168 -57v-723l170 -60l-8 -57h-222l-251 -6z" />
<glyph unicode="&#xfb02;" horiz-adv-x="1732" d="M92 53l170 62v725l-170 55l14 59h392l342 2l24 -24v-209l-67 -16l-21 63q-17 54 -47.5 71t-107.5 17q-187 0 -203 -18q-4 -4 -5 -12.5t0 -22.5l1 -14v-234h186l12 12l35 119l64 -12q-4 -110 -4 -166q0 -54 4 -160l-64 -14l-18 70q-9 33 -27 47t-51 14l-129 -2l-8 -12 v-336l184 -60l-10 -57h-254l-232 -4zM993 53l168 62v725l-168 55l13 59h235l232 4l8 -59l-168 -59v-643q0 -41 21 -64.5t48.5 -30t67.5 -6.5q34 0 92.5 9t71.5 22q4 4 23 38.5t36 66.5l17 32l61 -22l-51 -242h-328l-371 -4z" />
</font>
</defs>
</svg>
